<svg xmlns="http://www.w3.org/2000/svg" xmlns:xlink="http://www.w3.org/1999/xlink" viewBox="0 0 320 354.72"><defs><style>.cls-1,.cls-22{opacity:0.3;}.cls-2{fill:url(#_ÂÁ_Ï_ÌÌ_È_ËÂÌÚ_30);}.cls-3{fill:#fff;}.cls-4{fill:url(#_ÂÁ_Ï_ÌÌ_È_ËÂÌÚ_28);}.cls-5{fill:url(#_ÂÁ_Ï_ÌÌ_È_ËÂÌÚ_29);}.cls-6{fill:url(#_ÂÁ_Ï_ÌÌ_È_ËÂÌÚ_30-2);}.cls-7{fill:url(#_ÂÁ_Ï_ÌÌ_È_ËÂÌÚ_28-2);}.cls-8{fill:url(#_ÂÁ_Ï_ÌÌ_È_ËÂÌÚ_29-2);}.cls-9{fill:url(#_ÂÁ_Ï_ÌÌ_È_ËÂÌÚ_30-3);}.cls-10{fill:url(#_ÂÁ_Ï_ÌÌ_È_ËÂÌÚ_28-3);}.cls-11{fill:url(#_ÂÁ_Ï_ÌÌ_È_ËÂÌÚ_29-3);}.cls-12{fill:url(#_ÂÁ_Ï_ÌÌ_È_ËÂÌÚ_30-4);}.cls-13{fill:url(#_ÂÁ_Ï_ÌÌ_È_ËÂÌÚ_28-4);}.cls-14{fill:url(#_ÂÁ_Ï_ÌÌ_È_ËÂÌÚ_29-4);}.cls-15{fill:url(#_ÂÁ_Ï_ÌÌ_È_ËÂÌÚ_30-5);}.cls-16{fill:url(#_ÂÁ_Ï_ÌÌ_È_ËÂÌÚ_28-5);}.cls-17{fill:url(#_ÂÁ_Ï_ÌÌ_È_ËÂÌÚ_29-5);}.cls-18{fill:url(#_ÂÁ_Ï_ÌÌ_È_ËÂÌÚ_30-6);}.cls-19{fill:url(#_ÂÁ_Ï_ÌÌ_È_ËÂÌÚ_28-6);}.cls-20{fill:url(#_ÂÁ_Ï_ÌÌ_È_ËÂÌÚ_29-6);}.cls-21{fill:url(#_ÂÁ_Ï_ÌÌ_È_ËÂÌÚ_30-7);}.cls-22{fill:url(#_ÂÁ_Ï_ÌÌ_È_ËÂÌÚ_29-7);}.cls-23{fill:url(#_ÂÁ_Ï_ÌÌ_È_ËÂÌÚ_28-7);}.cls-24{fill:url(#_ÂÁ_Ï_ÌÌ_È_ËÂÌÚ_29-8);}.cls-25{fill:url(#_ÂÁ_Ï_ÌÌ_È_ËÂÌÚ_30-8);}.cls-26{fill:url(#_ÂÁ_Ï_ÌÌ_È_ËÂÌÚ_28-8);}.cls-27{fill:url(#_ÂÁ_Ï_ÌÌ_È_ËÂÌÚ_29-9);}.cls-28{fill:url(#_ÂÁ_Ï_ÌÌ_È_ËÂÌÚ_30-9);}.cls-29{fill:#3045bc;opacity:0.2;}.cls-30{fill:url(#_ÂÁ_Ï_ÌÌ_È_ËÂÌÚ_28-9);}.cls-31{fill:url(#_ÂÁ_Ï_ÌÌ_È_ËÂÌÚ_29-10);}.cls-32{fill:url(#_ÂÁ_Ï_ÌÌ_È_ËÂÌÚ_30-10);}.cls-33{fill:url(#_ÂÁ_Ï_ÌÌ_È_ËÂÌÚ_28-10);}.cls-34{fill:url(#_ÂÁ_Ï_ÌÌ_È_ËÂÌÚ_29-11);}.cls-35{fill:url(#_ÂÁ_Ï_ÌÌ_È_ËÂÌÚ_30-11);}.cls-36{fill:url(#_ÂÁ_Ï_ÌÌ_È_ËÂÌÚ_28-11);}.cls-37{fill:url(#_ÂÁ_Ï_ÌÌ_È_ËÂÌÚ_29-12);}.cls-38{fill:#162184;}.cls-39{fill:#242993;}.cls-40{fill:#4553c7;}.cls-41{fill:url(#_ÂÁ_Ï_ÌÌ_È_ËÂÌÚ_21);}.cls-42{fill:url(#_ÂÁ_Ï_ÌÌ_È_ËÂÌÚ_21-2);}.cls-43{fill:azure;}.cls-44{fill:#fce8ee;}.cls-45{fill:#485dce;}.cls-46{fill:#aa9aac;}.cls-47{fill:#c4e3ff;}.cls-48{fill:#e2c8cf;}.cls-49{fill:url(#_ÂÁ_Ï_ÌÌ_È_ËÂÌÚ_21-3);}.cls-50{fill:#938496;}.cls-51{fill:url(#_ÂÁ_Ï_ÌÌ_È_ËÂÌÚ_20);}.cls-52{fill:url(#_ÂÁ_Ï_ÌÌ_È_ËÂÌÚ_20-2);}.cls-53{fill:url(#_ÂÁ_Ï_ÌÌ_È_ËÂÌÚ_20-3);}.cls-54{fill:url(#_ÂÁ_Ï_ÌÌ_È_ËÂÌÚ_20-4);}</style><linearGradient id="_ÂÁ_Ï_ÌÌ_È_ËÂÌÚ_30" x1="2189.95" y1="-979.16" x2="2230.34" y2="-979.16" gradientTransform="matrix(-0.87, 0.5, 1, 0.58, 2994.4, -466.68)" gradientUnits="userSpaceOnUse"><stop offset="0" stop-color="#c0d6ff"/><stop offset="0.5" stop-color="#d2e8ff"/><stop offset="1" stop-color="#e9ffff"/></linearGradient><linearGradient id="_ÂÁ_Ï_ÌÌ_È_ËÂÌÚ_28" x1="4184.63" y1="1362.77" x2="4225.02" y2="1362.77" gradientTransform="matrix(-0.87, -0.5, 0, 1.15, 3725.05, 689.65)" gradientUnits="userSpaceOnUse"><stop offset="0" stop-color="#c0d6ff"/><stop offset="0.3" stop-color="#c5dbff"/><stop offset="0.65" stop-color="#d3e9ff"/><stop offset="1" stop-color="#e9ffff"/></linearGradient><linearGradient id="_ÂÁ_Ï_ÌÌ_È_ËÂÌÚ_29" x1="4109.64" y1="-844.15" x2="4170.31" y2="-844.15" gradientTransform="matrix(-0.87, 0.5, 0, 1.15, 3718.35, -942.79)" gradientUnits="userSpaceOnUse"><stop offset="0" stop-color="#5778ff"/><stop offset="0.18" stop-color="#5c7dff"/><stop offset="0.39" stop-color="#6a8aff"/><stop offset="0.61" stop-color="#82a0ff"/><stop offset="0.85" stop-color="#a3beff"/><stop offset="1" stop-color="#bcd5ff"/></linearGradient><linearGradient id="_ÂÁ_Ï_ÌÌ_È_ËÂÌÚ_30-2" x1="2224.29" y1="-903.51" x2="2264.67" y2="-903.51" xlink:href="#_ÂÁ_Ï_ÌÌ_È_ËÂÌÚ_30"/><linearGradient id="_ÂÁ_Ï_ÌÌ_È_ËÂÌÚ_28-2" x1="4131.61" y1="1377.66" x2="4172" y2="1377.66" xlink:href="#_ÂÁ_Ï_ÌÌ_È_ËÂÌÚ_28"/><linearGradient id="_ÂÁ_Ï_ÌÌ_È_ËÂÌÚ_29-2" x1="4056.62" y1="-783.34" x2="4117.29" y2="-783.34" xlink:href="#_ÂÁ_Ï_ÌÌ_È_ËÂÌÚ_29"/><linearGradient id="_ÂÁ_Ï_ÌÌ_È_ËÂÌÚ_30-3" x1="2234.49" y1="-848.75" x2="2274.88" y2="-848.75" xlink:href="#_ÂÁ_Ï_ÌÌ_È_ËÂÌÚ_30"/><linearGradient id="_ÂÁ_Ï_ÌÌ_È_ËÂÌÚ_28-3" x1="4078.59" y1="1382.11" x2="4118.98" y2="1382.11" xlink:href="#_ÂÁ_Ï_ÌÌ_È_ËÂÌÚ_28"/><linearGradient id="_ÂÁ_Ï_ÌÌ_È_ËÂÌÚ_29-3" x1="4003.6" y1="-732.97" x2="4064.27" y2="-732.97" xlink:href="#_ÂÁ_Ï_ÌÌ_È_ËÂÌÚ_29"/><linearGradient id="_ÂÁ_Ï_ÌÌ_È_ËÂÌÚ_30-4" x1="2267.37" y1="-774.36" x2="2307.76" y2="-774.36" xlink:href="#_ÂÁ_Ï_ÌÌ_È_ËÂÌÚ_30"/><linearGradient id="_ÂÁ_Ï_ÌÌ_È_ËÂÌÚ_28-4" x1="4025.57" y1="1396.37" x2="4065.95" y2="1396.37" xlink:href="#_ÂÁ_Ï_ÌÌ_È_ËÂÌÚ_28"/><linearGradient id="_ÂÁ_Ï_ÌÌ_È_ËÂÌÚ_29-4" x1="3950.57" y1="-672.79" x2="4011.24" y2="-672.79" xlink:href="#_ÂÁ_Ï_ÌÌ_È_ËÂÌÚ_29"/><linearGradient id="_ÂÁ_Ï_ÌÌ_È_ËÂÌÚ_30-5" x1="2259.54" y1="-735.23" x2="2299.92" y2="-735.23" xlink:href="#_ÂÁ_Ï_ÌÌ_È_ËÂÌÚ_30"/><linearGradient id="_ÂÁ_Ï_ÌÌ_È_ËÂÌÚ_28-5" x1="3972.55" y1="1393" x2="4012.93" y2="1393" xlink:href="#_ÂÁ_Ï_ÌÌ_È_ËÂÌÚ_28"/><linearGradient id="_ÂÁ_Ï_ÌÌ_È_ËÂÌÚ_29-5" x1="3897.55" y1="-630.24" x2="3958.22" y2="-630.24" xlink:href="#_ÂÁ_Ï_ÌÌ_È_ËÂÌÚ_29"/><linearGradient id="_ÂÁ_Ï_ÌÌ_È_ËÂÌÚ_30-6" x1="2159.5" y1="-1005.53" x2="2199.89" y2="-1005.53" xlink:href="#_ÂÁ_Ï_ÌÌ_È_ËÂÌÚ_30"/><linearGradient id="_ÂÁ_Ï_ÌÌ_È_ËÂÌÚ_28-6" x1="4184.63" y1="1320.3" x2="4225.02" y2="1320.3" xlink:href="#_ÂÁ_Ï_ÌÌ_È_ËÂÌÚ_28"/><linearGradient id="_ÂÁ_Ï_ÌÌ_È_ËÂÌÚ_29-6" x1="4109.64" y1="-886.62" x2="4170.31" y2="-886.62" xlink:href="#_ÂÁ_Ï_ÌÌ_È_ËÂÌÚ_29"/><linearGradient id="_ÂÁ_Ï_ÌÌ_È_ËÂÌÚ_30-7" x1="2193.84" y1="-929.87" x2="2234.23" y2="-929.87" xlink:href="#_ÂÁ_Ï_ÌÌ_È_ËÂÌÚ_30"/><linearGradient id="_ÂÁ_Ï_ÌÌ_È_ËÂÌÚ_29-7" x1="2201.22" y1="-929.87" x2="2226.93" y2="-929.87" gradientTransform="matrix(-0.87, 0.5, 1, 0.58, 2994.4, -466.68)" xlink:href="#_ÂÁ_Ï_ÌÌ_È_ËÂÌÚ_29"/><linearGradient id="_ÂÁ_Ï_ÌÌ_È_ËÂÌÚ_28-7" x1="4131.61" y1="1335.19" x2="4172" y2="1335.19" xlink:href="#_ÂÁ_Ï_ÌÌ_È_ËÂÌÚ_28"/><linearGradient id="_ÂÁ_Ï_ÌÌ_È_ËÂÌÚ_29-8" x1="4056.62" y1="-825.81" x2="4117.29" y2="-825.81" xlink:href="#_ÂÁ_Ï_ÌÌ_È_ËÂÌÚ_29"/><linearGradient id="_ÂÁ_Ï_ÌÌ_È_ËÂÌÚ_30-8" x1="2163.44" y1="-956.2" x2="2203.83" y2="-956.2" xlink:href="#_ÂÁ_Ï_ÌÌ_È_ËÂÌÚ_30"/><linearGradient id="_ÂÁ_Ï_ÌÌ_È_ËÂÌÚ_28-8" x1="4131.61" y1="1278.88" x2="4172" y2="1278.88" xlink:href="#_ÂÁ_Ï_ÌÌ_È_ËÂÌÚ_28"/><linearGradient id="_ÂÁ_Ï_ÌÌ_È_ËÂÌÚ_29-9" x1="4056.62" y1="-882.12" x2="4117.29" y2="-882.12" xlink:href="#_ÂÁ_Ï_ÌÌ_È_ËÂÌÚ_29"/><linearGradient id="_ÂÁ_Ï_ÌÌ_È_ËÂÌÚ_30-9" x1="2204.04" y1="-875.12" x2="2244.43" y2="-875.12" xlink:href="#_ÂÁ_Ï_ÌÌ_È_ËÂÌÚ_30"/><linearGradient id="_ÂÁ_Ï_ÌÌ_È_ËÂÌÚ_28-9" x1="4078.59" y1="1339.63" x2="4118.98" y2="1339.63" xlink:href="#_ÂÁ_Ï_ÌÌ_È_ËÂÌÚ_28"/><linearGradient id="_ÂÁ_Ï_ÌÌ_È_ËÂÌÚ_29-10" x1="4003.6" y1="-775.45" x2="4064.27" y2="-775.45" xlink:href="#_ÂÁ_Ï_ÌÌ_È_ËÂÌÚ_29"/><linearGradient id="_ÂÁ_Ï_ÌÌ_È_ËÂÌÚ_30-10" x1="2236.92" y1="-800.73" x2="2277.31" y2="-800.73" xlink:href="#_ÂÁ_Ï_ÌÌ_È_ËÂÌÚ_30"/><linearGradient id="_ÂÁ_Ï_ÌÌ_È_ËÂÌÚ_28-10" x1="4025.57" y1="1353.9" x2="4065.95" y2="1353.9" xlink:href="#_ÂÁ_Ï_ÌÌ_È_ËÂÌÚ_28"/><linearGradient id="_ÂÁ_Ï_ÌÌ_È_ËÂÌÚ_29-11" x1="3950.57" y1="-715.26" x2="4011.24" y2="-715.26" xlink:href="#_ÂÁ_Ï_ÌÌ_È_ËÂÌÚ_29"/><linearGradient id="_ÂÁ_Ï_ÌÌ_È_ËÂÌÚ_30-11" x1="2229.09" y1="-761.59" x2="2269.48" y2="-761.59" xlink:href="#_ÂÁ_Ï_ÌÌ_È_ËÂÌÚ_30"/><linearGradient id="_ÂÁ_Ï_ÌÌ_È_ËÂÌÚ_28-11" x1="3972.55" y1="1350.53" x2="4012.93" y2="1350.53" xlink:href="#_ÂÁ_Ï_ÌÌ_È_ËÂÌÚ_28"/><linearGradient id="_ÂÁ_Ï_ÌÌ_È_ËÂÌÚ_29-12" x1="3897.55" y1="-672.71" x2="3958.22" y2="-672.71" xlink:href="#_ÂÁ_Ï_ÌÌ_È_ËÂÌÚ_29"/><linearGradient id="_ÂÁ_Ï_ÌÌ_È_ËÂÌÚ_21" x1="130.68" y1="163.18" x2="141.51" y2="163.18" gradientTransform="matrix(1, 0.06, -0.06, 1, 49.66, -89.78)" gradientUnits="userSpaceOnUse"><stop offset="0" stop-color="#5778ff"/><stop offset="0.07" stop-color="#5489ff"/><stop offset="0.28" stop-color="#4eb3ff"/><stop offset="0.48" stop-color="#49d4ff"/><stop offset="0.67" stop-color="#45ecff"/><stop offset="0.85" stop-color="#43faff"/><stop offset="1" stop-color="#42ffff"/></linearGradient><linearGradient id="_ÂÁ_Ï_ÌÌ_È_ËÂÌÚ_21-2" x1="146" y1="166.69" x2="168.67" y2="166.69" xlink:href="#_ÂÁ_Ï_ÌÌ_È_ËÂÌÚ_21"/><linearGradient id="_ÂÁ_Ï_ÌÌ_È_ËÂÌÚ_21-3" x1="135.58" y1="137.95" x2="172.45" y2="137.95" xlink:href="#_ÂÁ_Ï_ÌÌ_È_ËÂÌÚ_21"/><linearGradient id="_ÂÁ_Ï_ÌÌ_È_ËÂÌÚ_20" x1="2689.23" y1="197.39" x2="2678.08" y2="185.43" gradientTransform="matrix(-1, 0, 0, 1, 2694.2, 0)" gradientUnits="userSpaceOnUse"><stop offset="0" stop-color="#42ffff"/><stop offset="0.15" stop-color="#43faff"/><stop offset="0.33" stop-color="#45ecff"/><stop offset="0.52" stop-color="#49d4ff"/><stop offset="0.72" stop-color="#4eb3ff"/><stop offset="0.93" stop-color="#5489ff"/><stop offset="1" stop-color="#5778ff"/></linearGradient><linearGradient id="_ÂÁ_Ï_ÌÌ_È_ËÂÌÚ_20-2" x1="2601.97" y1="297.18" x2="2594.1" y2="288.74" xlink:href="#_ÂÁ_Ï_ÌÌ_È_ËÂÌÚ_20"/><linearGradient id="_ÂÁ_Ï_ÌÌ_È_ËÂÌÚ_20-3" x1="2582.62" y1="312" x2="2564.72" y2="292.8" xlink:href="#_ÂÁ_Ï_ÌÌ_È_ËÂÌÚ_20"/><linearGradient id="_ÂÁ_Ï_ÌÌ_È_ËÂÌÚ_20-4" x1="2669.58" y1="210.45" x2="2663.7" y2="204.15" xlink:href="#_ÂÁ_Ï_ÌÌ_È_ËÂÌÚ_20"/></defs><title>Kaizen</title><g id="Layer_2" data-name="Layer 2"><g id="_ÎÓÈ_1" data-name="—ÎÓÈ_1"><g class="cls-1"><polygon class="cls-2" points="101.16 93.39 136.33 73.08 101.16 52.77 65.98 73.08 101.16 93.39"/><polygon class="cls-3" points="101.16 92.55 135.6 72.66 136.33 73.08 101.16 93.39 65.98 73.08 66.71 72.66 101.16 92.55"/><polygon class="cls-4" points="65.98 228.14 101.16 248.45 101.16 93.39 65.98 73.08 65.98 228.14"/><polygon class="cls-5" points="101.16 248.45 136.33 228.14 136.33 73.08 101.16 93.39 101.16 248.45"/><polygon class="cls-6" points="147.07 154.24 182.25 133.93 147.07 113.62 111.9 133.93 147.07 154.24"/><polygon class="cls-3" points="147.07 153.4 181.52 133.51 182.25 133.93 147.07 154.24 111.9 133.93 112.63 133.51 147.07 153.4"/><polygon class="cls-7" points="111.9 254.71 147.07 275.02 147.07 154.24 111.9 133.93 111.9 254.71"/><polygon class="cls-8" points="147.07 275.02 182.25 254.71 182.25 133.93 147.07 154.24 147.07 275.02"/><polygon class="cls-9" points="192.99 190.96 228.17 170.65 192.99 150.34 157.82 170.65 192.99 190.96"/><polygon class="cls-3" points="192.99 190.12 227.44 170.23 228.17 170.65 192.99 190.96 157.82 170.65 158.54 170.23 192.99 190.12"/><polygon class="cls-10" points="157.82 281.28 192.99 301.58 192.99 190.96 157.82 170.65 157.82 281.28"/><polygon class="cls-11" points="192.99 301.58 228.17 281.28 228.17 170.65 192.99 190.96 192.99 301.58"/><polygon class="cls-12" points="238.91 250.35 274.08 230.04 238.91 209.73 203.74 230.04 238.91 250.35"/><polygon class="cls-3" points="238.91 249.51 273.36 229.62 274.08 230.04 238.91 250.35 203.74 230.04 204.46 229.62 238.91 249.51"/><polygon class="cls-13" points="203.73 307.84 238.91 328.15 238.91 250.35 203.73 230.04 203.73 307.84"/><polygon class="cls-14" points="238.91 328.15 274.08 307.84 274.08 230.04 238.91 250.35 238.91 328.15"/><polygon class="cls-15" points="284.82 269.03 320 248.72 284.83 228.41 249.65 248.72 284.82 269.03"/><polygon class="cls-3" points="284.82 268.19 319.27 248.3 320 248.72 284.82 269.03 249.65 248.72 250.38 248.3 284.82 268.19"/><polygon class="cls-16" points="249.65 334.41 284.82 354.72 284.82 269.03 249.65 248.72 249.65 334.41"/><polygon class="cls-17" points="284.82 354.72 320 334.41 320 248.72 284.82 269.03 284.82 354.72"/></g><polygon class="cls-18" points="101.16 62.94 136.33 42.63 101.16 22.32 65.98 42.63 101.16 62.94"/><polygon class="cls-3" points="101.16 62.1 135.6 42.21 136.33 42.63 101.16 62.94 65.98 42.63 66.71 42.21 101.16 62.1"/><polygon class="cls-19" points="65.98 160.51 101.16 180.81 101.16 62.94 65.98 42.63 65.98 160.51"/><polygon class="cls-20" points="101.16 180.81 136.33 160.51 136.33 42.63 101.16 62.94 101.16 180.81"/><polygon class="cls-21" points="147.07 123.79 182.25 103.48 147.08 83.17 111.9 103.48 147.07 123.79"/><polygon class="cls-22" points="147.07 116.41 169.47 103.48 147.07 90.56 124.68 103.48 147.07 116.41"/><polygon class="cls-3" points="147.07 122.95 181.52 103.06 182.25 103.48 147.07 123.79 111.9 103.48 112.63 103.06 147.07 122.95"/><polygon class="cls-23" points="111.9 187.07 147.07 207.38 147.07 123.79 111.9 103.48 111.9 187.07"/><polygon class="cls-24" points="147.07 207.38 182.25 187.07 182.25 103.48 147.07 123.79 147.07 207.38"/><polygon class="cls-25" points="147.07 93.39 182.25 73.08 147.07 52.77 111.9 73.08 147.07 93.39"/><polygon class="cls-3" points="147.07 92.55 181.52 72.66 182.25 73.08 147.07 93.39 111.9 73.08 112.63 72.66 147.07 92.55"/><polygon class="cls-26" points="111.9 87.43 147.07 107.74 147.07 93.39 111.9 73.08 111.9 87.43"/><polygon class="cls-27" points="147.07 107.74 182.25 87.43 182.25 73.08 147.07 93.39 147.07 107.74"/><polygon class="cls-28" points="192.99 160.51 228.17 140.2 192.99 119.89 157.82 140.2 192.99 160.51"/><path class="cls-29" d="M193,148.33h0c14.55,0,23.63-8,16.34-14.39h0c-3.39-3-9.63-4.77-16.38-4.75h0c-14.56,0-23.63,8-16.34,14.39h0C180,146.54,186.25,148.35,193,148.33Z"/><polygon class="cls-3" points="192.99 159.67 227.44 139.78 228.17 140.2 192.99 160.51 157.82 140.2 158.54 139.78 192.99 159.67"/><polygon class="cls-30" points="157.82 213.64 192.99 233.95 192.99 160.51 157.82 140.2 157.82 213.64"/><polygon class="cls-31" points="192.99 233.95 228.17 213.64 228.17 140.2 192.99 160.51 192.99 233.95"/><polygon class="cls-32" points="238.91 219.9 274.08 199.59 238.91 179.28 203.74 199.59 238.91 219.9"/><polygon class="cls-3" points="238.91 219.06 273.36 199.17 274.08 199.59 238.91 219.9 203.74 199.59 204.46 199.17 238.91 219.06"/><polygon class="cls-33" points="203.73 240.21 238.91 260.52 238.91 219.9 203.73 199.59 203.73 240.21"/><polygon class="cls-34" points="238.91 260.52 274.08 240.21 274.08 199.59 238.91 219.9 238.91 260.52"/><polygon class="cls-35" points="284.82 238.58 320 218.27 284.83 197.97 249.65 218.27 284.82 238.58"/><polygon class="cls-3" points="284.82 237.74 319.27 217.85 320 218.27 284.82 238.58 249.65 218.27 250.38 217.85 284.82 237.74"/><polygon class="cls-36" points="249.65 266.77 284.82 287.08 284.82 238.58 249.65 218.27 249.65 266.77"/><polygon class="cls-37" points="284.82 287.08 320 266.77 320 218.27 284.82 238.58 284.82 287.08"/><path class="cls-38" d="M183.68,125.7s-.63.65-1.28,1.42a17.5,17.5,0,0,1-3.25,2.33c-.77.47-4.29,3.14-5,5.77s1.78,3,4.36,2.53,5-2.84,5.68-3.7a24.35,24.35,0,0,1,6.3-4.44c3.16-1.63,1.25-3.83,1.25-3.83Z"/><path class="cls-38" d="M207.15,133.51a9.82,9.82,0,0,1,.67,2.71c.14,1.52.36,4.81.43,5.78a8.12,8.12,0,0,1-1.58,5.58c-1.7,2.26-2.58,3.16-4.83,2.27s-2.21-4.68-1.81-6.63a53.82,53.82,0,0,0,.73-6.76,1.35,1.35,0,0,1,.13-.75Z"/><path class="cls-39" d="M175.89,81s.48,17.36,4.53,26.58a67.4,67.4,0,0,1,3.28,17.78,3.44,3.44,0,0,0,.28,3c1,1.36,6.89,2.59,7.87-1.85s.6-12.75-.47-16.21.38-13,.38-13,1.62,1,3.75,7.9a89.51,89.51,0,0,0,4.43,11.37c.73,1.9,1.41,13.53.94,19.21,0,0,4.81.68,6.21-1.62s1.85-14.2,1.5-18-1.94-16-1.72-19.71,1-6.82.14-10.57-26.25-12.1-26.25-12.1Z"/><path class="cls-38" d="M206.87,96.47c.22-3.76,1-6.82.14-10.57-.32-1.41-4.11-3.47-8.72-5.5-7.77-.71-17.62-1.53-18.3-1.43a27.28,27.28,0,0,0-3.56,1.24l-.54.81s0,1,.14,2.78c1.81.54,5.29,0,5.29,0a18.84,18.84,0,0,0,7.29,7.42c3.77,1.87,14.79,1.23,15.42,1.94s.75,10.22.68,11.42,1,8.82,2.07,15.55-.53,14.67-.58,14.93a2.74,2.74,0,0,0,.89-.87c1.39-2.3,1.85-14.2,1.5-18S206.65,100.23,206.87,96.47Z"/><path class="cls-40" d="M184.39,24.21l-7.53,1.73a1,1,0,0,0-.68.6,23,23,0,0,0-.89,12,59.7,59.7,0,0,1,.87,12.92L173.55,65s-3.27,12.92-3,13.27,7.54,5.88,9.81,5.1,1.53-2.06,1.53-2.06,1.83,9.36,10,9.27,14.78-.07,16.16-3.36-.37-17.11-1.81-22.58-4.84-16.39-4.84-16.39l11.91-13.19-10.18-7.78s-2.43-4.52-3.43-5.09-1.53-.09-1.53-.09Z"/><path class="cls-41" d="M180.51,80.38c0,.47-.27,1.17-1.73,1.67s-5.45-1.81-8-3.58c1.27,1,7.51,5.6,9.58,4.89a3.85,3.85,0,0,0,1-.51A17.12,17.12,0,0,1,180.51,80.38Z"/><path class="cls-42" d="M208,86.12c-1.45,3.47-8.47,3.44-17.05,3.54a9.2,9.2,0,0,1-5.34-1.54,8.69,8.69,0,0,0,6.29,2.45c8.14-.09,14.78-.07,16.16-3.36.46-1.07.57-3.29.47-6A14.26,14.26,0,0,1,208,86.12Z"/><path class="cls-43" d="M199.46,22.06s2.08,2.52-.92,5.92a81.23,81.23,0,0,0-7.71,11.28c-1.69,2.93-3.25,4.49-4.13,7,0,0-.13-3-.24-7.59a96.43,96.43,0,0,1,0-10C186.88,26.31,197.16,20.92,199.46,22.06Z"/><path class="cls-44" d="M191.67,29.64s-1.06.66-1.43.6-1.55-1.2-1.55-1.2-2.95-.05-3.27-1.32a28.21,28.21,0,0,0-.84-3.19,20.62,20.62,0,0,1-1.58-5.1c0-1.28,0-3.57-.51-4.78s-1.3-13.33,10.4-13S201,14.15,201,14.15s.86.37.34,1.93-.64,1.73-.9,2.51a3.41,3.41,0,0,1-1.14,1.9l-.19,1.44a5.81,5.81,0,0,1-.9,4.34C196.71,28.41,191.67,29.64,191.67,29.64Z"/><path class="cls-39" d="M176.54,26.08s-1.25.19-5.3,10.37C169,42.14,165.5,48,164.76,52.25s-.33,8.74.51,9.06,15.35,5.75,19.9,7.47a.44.44,0,0,0,.58-.33l1.25-7-9-3.49A13,13,0,0,0,174.64,55s1.81-3.33,1.69-4.24.16-10.34-.9-14.17S176.54,26.08,176.54,26.08Z"/><path class="cls-44" d="M181.83,53a18.13,18.13,0,0,0-1.55-1c-.31-.12-2-.69-2.29-.83a6.42,6.42,0,0,0-1.69,0,.53.53,0,0,0-.41.28c-.39.71-1.46,2.79-1.34,3.58,0,0,3,1.9,3.35,2.74l.48.11S180.39,53.63,181.83,53Z"/><path class="cls-39" d="M206.22,64.63c-.34-1.32-.8-2.95-1.3-4.67L186.63,67.8a19.26,19.26,0,0,0,15.07,6.29,12.57,12.57,0,0,0,5.94-1.87A71.67,71.67,0,0,0,206.22,64.63Z"/><path class="cls-39" d="M213.29,35.05s-4.82.66-8.72,6.84a94.07,94.07,0,0,0-6.73,13.32l-.14.81a3.24,3.24,0,0,1-4.53,2.43c-4.11-1.84-10.2-4.61-11.34-5.45a10.53,10.53,0,0,0-4.64,6.78c-.79,3.79-.59,3.8-.59,3.8s16.24,7.58,22.51,7.51,14.23-20.7,15.1-25S216.05,36.26,213.29,35.05Z"/><path class="cls-45" d="M213.29,35.05s-4.82.66-8.72,6.84a94.07,94.07,0,0,0-6.73,13.32l-.14.81a3.24,3.24,0,0,1-4.53,2.43c-4.11-1.84-10.2-4.61-11.34-5.45a10.53,10.53,0,0,0-4.64,6.78c-.79,3.79-.59,3.8-.59,3.8s16.24,7.58,22.51,7.51,14.23-20.7,15.1-25S216.05,36.26,213.29,35.05Z"/><path class="cls-40" d="M195.5,59.41s2.05,1.92,2.94.87.63-1.17.63-1.17,1.85,0,2.07-1.17,1.13-.54,1.18-1.83-1.49-1-1.49-1Z"/><path class="cls-44" d="M193,58.39s.56-.53,1.29-1.14,1.9-3.16,2.1-3.38,2.65-2.11,3.83-2.14.3,1.29,0,1.48-1.43.76-1.43.76-1.18,1-1.32,1.14,3.3-.24,3.85.1a.93.93,0,0,1,0,1.45,1.32,1.32,0,0,1-.68.23,1.19,1.19,0,0,1-.64,1.51c-1,.48-1.27.21-1.27.21S198.73,60.4,197,60Z"/><path class="cls-46" d="M182.22,8.45s-1.53,4.87,2.5,3.48,7.66-3.7,8.92-2.82c1,.68.92,2.73.84,3.68a1.41,1.41,0,0,0,.24.91l1.19,1.73a1.2,1.2,0,0,1,.23.66l.09,1.2a.61.61,0,0,0,.57.57h.27a.6.6,0,0,0,.63-.5L198,15.6s1-2.38,3-1.45c0,0,1.34-1.79.89-5.64S199.69.67,192.14,0,182.22,8.45,182.22,8.45Z"/><path class="cls-47" d="M193.75,33.92,192.62,33a6.17,6.17,0,0,0-1.45,1.79c-.41.92,0,3.84,0,3.84l-.34.59-.43-.77L190.05,35s.38-2.55.42-2.62,2.18.23,2.18.23A4.46,4.46,0,0,1,193.75,33.92Z"/><path class="cls-47" d="M188.32,30.48a3.87,3.87,0,0,0-1.75.53l1.47.08C188.24,31.12,188.32,30.48,188.32,30.48Z"/><path class="cls-39" d="M190.62,30.75l2,1.89a4.62,4.62,0,0,0-2.28,2.41s-2.2.41-2.4-.39,0-2.81-.26-3.7S190.62,30.75,190.62,30.75Z"/><path class="cls-39" d="M188.05,34.62a11.47,11.47,0,0,1-.79,2.34c-.41.68-.83,1.45-.83,1.45l0,9.71s3.57-7.36,4.35-8.86a22.24,22.24,0,0,0-.46-4.21C190,34.38,188.05,34.62,188.05,34.62Z"/><path class="cls-48" d="M197.64,20.26A14.79,14.79,0,0,1,188.69,29s1.18,1.15,1.55,1.2,1.43-.6,1.43-.6,5-1.23,6.5-3.37a5.81,5.81,0,0,0,.9-4.34l.19-1.44A1.61,1.61,0,0,1,197.64,20.26Z"/><path class="cls-39" d="M203,28.19s-.93,3.19-1,3.31a14.35,14.35,0,0,1-2.33-.13l1.07,2S189.6,45.32,187.29,51.73A135.57,135.57,0,0,1,201.81,33.9l-1.31-2,2.27.44Z"/><path class="cls-39" d="M184.76,25.37l-.59.67.69.65-2.05,1.85s-.63,13,1.88,21.68c0,0-3.41-7.93-2.64-22l2.23-1.51-.73-.72Z"/><path class="cls-38" d="M191.76,97.31l.08.06L189,94.31c1.33,1.87-.2,10.45-.36,12.42s1.53,6,2.17,10.77-.67,11.53-.67,11.55a3.67,3.67,0,0,0,1.75-2.51c1-4.44.6-12.75-.47-16.21S191.76,97.31,191.76,97.31Z"/><path class="cls-49" d="M199.11,71.09c6.27-.08,14.23-20.7,15.1-25,.15-.71.3-1.46.43-2.22,0,.06-1.65,4.52-3.22,8.46s-9.95,16-14.24,16.81c-3.86.71-17.75-5.78-20.44-7.06-.24,1.45-.14,1.46-.14,1.46S192.84,71.16,199.11,71.09Z"/><path class="cls-50" d="M197.07,17.87a.6.6,0,0,0,.63-.5L198,15.6s1-2.38,3-1.45c0,0,1.26-1.7.92-5.34-2.22,3.34-7.16,4.89-7.16,4.89l1.19,1.73a1.2,1.2,0,0,1,.23.66l.09,1.2a.61.61,0,0,0,.57.57Z"/><path class="cls-51" d="M0,191.41c1.84,7.84,19.26,7.84,21.09,0C19.26,183.58,1.84,183.58,0,191.41Z"/><path class="cls-52" d="M88.85,293.37c1.75,5,12.88,5,14.63,0a1.28,1.28,0,0,0,0-.82c-1.75-5-12.88-5-14.63,0A1.28,1.28,0,0,0,88.85,293.37Z"/><path class="cls-53" d="M104.33,304.41c5.06,10,28,9.89,32.6-.4a4,4,0,0,0,0-3.22c-4.57-10.3-27.54-10.44-32.6-.41A4.47,4.47,0,0,0,104.33,304.41Z"/><path class="cls-54" d="M22,207.3c1,4.13,10.15,4.13,11.12,0C32.15,203.17,23,203.17,22,207.3Z"/></g></g></svg>