<svg xmlns="http://www.w3.org/2000/svg" xmlns:xlink="http://www.w3.org/1999/xlink" viewBox="0 0 439.6 435.35"><defs><style>.cls-1,.cls-3{isolation:isolate;}.cls-2{mix-blend-mode:multiply;fill:url(#linear-gradient);}.cls-3{opacity:0.72;fill:url(#linear-gradient-2);}.cls-4{fill:#706865;}.cls-5{fill:#bdafaa;}.cls-6{fill:#fff;}.cls-7{fill:#b5deff;}.cls-8{fill:#eea886;}.cls-9{fill:#db9c7c;}.cls-10{fill:#ffc655;}.cls-11{fill:#4da8f2;}.cls-12{fill:#efaa88;}.cls-13{fill:#424773;}.cls-14{fill:#292c47;}.cls-15{fill:#e2d2ca;}.cls-16{fill:#dfe1e8;}.cls-17{fill:#202338;}.cls-18{fill:#323657;}.cls-19{fill:#e2e3ed;}.cls-20{fill:#aab1e0;}.cls-21{fill:#81807e;}.cls-22{fill:#dbd8e3;}.cls-23{fill:#1d2033;}.cls-24{fill:#434343;}.cls-25{fill:#eea987;}.cls-26{fill:#a77860;}.cls-27{fill:#5282fc;}.cls-28{fill:#c4c1cc;}</style><linearGradient id="linear-gradient" x1="10.16" y1="213.57" x2="439.6" y2="213.57" gradientUnits="userSpaceOnUse"><stop offset="0" stop-color="#57f"/><stop offset="1" stop-color="#4aaaf1"/></linearGradient><linearGradient id="linear-gradient-2" x1="224.09" y1="-156.93" x2="152.23" y2="-33.46" gradientTransform="matrix(1, 0, 0, -1, 0, 330.93)" gradientUnits="userSpaceOnUse"><stop offset="0" stop-color="#97cbec"/><stop offset="0.69" stop-color="#ccc2f5"/></linearGradient></defs><title>head-banner-1-trader 2</title><g class="cls-1"><g id="Layer_2" data-name="Layer 2"><g id="Layer_1-2" data-name="Layer 1"><path class="cls-2" d="M170.92,5.37C102.3,15.58,41.51,46.34,23.8,117.08,13.23,159.3,49.64,184.91,50.13,225c.29,23.75-15.53,44.92-26.69,65.36-65.32,119.5,127.22,139.28,212,136.58,55.7-1.78,118.27-2.18,157.5-43.7,32-33.84,54.52-85.43,44.13-131.11-5.72-25.16-35.43-41.82-28.2-70.26,2.75-10.8,16.14-22,20.3-33.84,6.9-19.63,12.89-47.6,5.17-67.21C406.19,9.31,307.1-1.58,236.37.17A540.39,540.39,0,0,0,170.92,5.37Z"/><g id="Слой_1" data-name="Слой 1"><path class="cls-3" d="M374.49,424.56c0,6-83.83,10.79-187.24,10.79S0,430.52,0,424.56s83.83-10.8,187.25-10.8S374.49,418.59,374.49,424.56Z"/><rect class="cls-4" x="301.72" y="200.63" width="4.39" height="199.59"/><path class="cls-5" d="M188.05,117.25H318.38a7.08,7.08,0,0,1,7.08,7.08V360.2a7.08,7.08,0,0,1-7.07,7.07H188.05a7.08,7.08,0,0,1-7.08-7.08h0V124.35a7.08,7.08,0,0,1,7.06-7.1Z"/><rect class="cls-6" x="184.94" y="121.27" width="136.55" height="236.23" rx="6.99"/><rect class="cls-4" x="231.69" y="115.35" width="43.05" height="9.72"/><path class="cls-7" d="M213.46,171.83a36.94,36.94,0,0,1,36.9-36.9v1.65a35.24,35.24,0,1,0,35.24,35.24,35.63,35.63,0,0,0-.38-5.16l1.64-.25a37.7,37.7,0,0,1,.4,5.42,36.9,36.9,0,1,1-73.8,0Z"/><path class="cls-8" d="M166.6,288.12a8.2,8.2,0,0,1,1.12,2.95,14.63,14.63,0,0,0,1.36,3.48,34.3,34.3,0,0,1,1.66,5.8c0,.42-.92,3-.78,3.89s.61,2.5-.15,2.61-1.61-1.25-1.61-1.25a1.12,1.12,0,0,1-.56,1.07,1.9,1.9,0,0,1-1.9.07s-.46.85-1,1a2.41,2.41,0,0,1-1.89-.25,2.33,2.33,0,0,1-1.44.46,1.9,1.9,0,0,1-1.59-1s-1.42.28-1.83-.38a6.34,6.34,0,0,1-.51-2,22.91,22.91,0,0,1,1.8-9.91c1.84-3.9-.47-7.71-.47-7.71Z"/><path class="cls-9" d="M168.4,305.09s.13-4.86-1.15-5.89-1.42.71-1.42.71.17-1.73-1.23-2-1.46,1.82-1.46,1.82a1.34,1.34,0,0,0-1.55-1.09.35.35,0,0,0-.14,0c-1.47.27-1.12,2-1.12,2s-1.4-1.67-2.31-.06c-1.54,2.71-.14,5.94-.14,5.94s.49.77,1.89.41a2,2,0,0,0,2.71.8,2.16,2.16,0,0,0,.35-.24s2.16,1.18,2.94-.71C165.77,306.83,168.3,307.82,168.4,305.09Z"/><path class="cls-10" d="M183.09,218.11s-8.32,27.73-11.13,38c-.88,3.2-3,33.84-3.39,35.07s-10.93,2.93-10.93,2.93,1.28-38.33,1.4-40.42,11.64-44.89,15-46.41c2.51-1.15,3.84-.2,7,2.15C185.47,212.69,183.09,218.11,183.09,218.11Z"/><rect class="cls-11" x="262.83" y="172.88" width="22.76" height="1.69" transform="translate(-50.37 178.39) rotate(-33.18)"/><path class="cls-12" d="M286.23,174a5.14,5.14,0,0,1-.49,1.51s-.62.74-1,1.3c-.12.17-.23.33-.29.44a9.29,9.29,0,0,1-1.58,2.44c-.91.92-4.43,3.85-4.43,3.85l-3-2.57-3.15-1.41s1.76-7.65,2.51-8.6a2.85,2.85,0,0,1,.23-.26,11.75,11.75,0,0,1,2-1.36c.15-.13,1.77-1.29,2.34-1.14a2,2,0,0,1,1.36,1.18,4.59,4.59,0,0,1,2.15,1.39,2.85,2.85,0,0,1,1.87,1.73S286.17,173.07,286.23,174Z"/><path class="cls-13" d="M176.34,407.44s-.76,5.27-.85,6.06-8.44-.47-8.44-.47l-.67-6.26S175.3,406.7,176.34,407.44Z"/><path class="cls-14" d="M175.58,412.83a22.64,22.64,0,0,0,5.2,4.56c2.55,1.38,6.57,1.92,8.08,3.36,1.09,1,4,5.48-6.64,5.39s-15.74.62-16.87-1.08S167,412.47,167,412.47,169.5,413.35,175.58,412.83Z"/><path class="cls-13" d="M236.11,407.44s-.76,5.27-.85,6.06-8.44-.47-8.44-.47l-.67-6.26S235.07,406.7,236.11,407.44Z"/><path class="cls-14" d="M235.35,412.83a22.64,22.64,0,0,0,5.2,4.56c2.55,1.38,12,2.51,13.47,3.94,1.09,1,2.91,5.2-12,4.81-10.61-.28-15.74.62-16.87-1.08s1.64-12.59,1.64-12.59S229.13,413.44,235.35,412.83Z"/><path class="cls-14" d="M183.25,272.18s-7.84,12.45-7.25,23.71-2.85,23.54-4,35.3c-1.34,13.16-6.71,44.16-6.9,51.16s.83,29.4.83,29.4l10.75.25s9-54.26,11.38-59.8,13.93-45,14.32-49.43S183.25,272.18,183.25,272.18Z"/><path class="cls-14" d="M224.51,273.86s5.91,30.86,6.69,37.75,1.3,33.34,1.69,37.65,3.64,56.22,4.68,62.75H223.82s-10.56-37.84-10.56-55.74-8.15-38.91-13.41-50.73-17.31-12.09-20.55-34C179.3,271.54,220.13,266.92,224.51,273.86Z"/><path class="cls-8" d="M196.33,167.48s10.52-3.93,15.37,4.07,4.38,24-.92,26-13.27.94-16-4.07-5.17-12.26-5.05-17.1S193.57,168.87,196.33,167.48Z"/><path class="cls-8" d="M209.64,197.93s-.44,2.84.28,4.24-13.63,1.44-13.63,1.44a93.27,93.27,0,0,0-3.37-14C190.71,183.14,209.64,197.93,209.64,197.93Z"/><path class="cls-14" d="M192.92,189.57s1,1.63,5,1,9-6,10.67-6.61,1.74-1.61,1.74-1.61l1,1.55,1.8.11s-1.64-4.81.83-6.78-2.56-15.57-15.53-11c0,0-10,2.74-9.6,8.41S190.69,186.75,192.92,189.57Z"/><path class="cls-15" d="M210.78,202s-.05-2.68-1.26-2.93-13.38-1.43-14.86-.85v3.12S197.52,203.11,210.78,202Z"/><path class="cls-8" d="M210.06,180.35c-.23-1-2.65-3.67-3.57-.76s1.4,6.82,2.69,6.48S210.63,182.73,210.06,180.35Z"/><path class="cls-10" d="M230.9,206.05c-8.34-1.09-20.12-4-20.12-4l-16.12-.7s-14.8,3.26-20.63,5.89c-.55.25-.55,13.2-2.07,16.59l4.83,10.2s2.79,20.18,3.37,29.16c.27,4.12-5.75,38.65-5.75,38.65A109.83,109.83,0,0,0,191.86,305c11,1.21,38.49-.44,38.67-1.74s-5.33-48.39-5.53-50.87c-.37-3.74,1.29-23.63,1.29-23.63,2.54-2,24.85-12.33,30.93-17.72,1.63-1.44,8.5-8.14,10.45-10.45,6.93-8.18,12.6-15.2,13.29-16.71.78-.86-7.78-5.5-8.53-5.75s-9.76,12-13.35,15.92c-1.61,1.74-8.28,6.6-8.28,6.6S236.11,206.35,230.9,206.05Z"/><path class="cls-14" d="M193.33,168.42s-13.41,1-.41,21.15Z"/><polygon class="cls-16" points="284.2 168.22 285.3 166.54 283.27 166.8 284.2 168.22"/><path class="cls-17" d="M70.53,413a37.47,37.47,0,0,1-3.21,5.05c-1.26,1.44-6.11,4-6.14,8.27,0,4.62,8.17,3.34,11.38,3.17s3.45-2.64,4.81-5.26,2.71-2.17,3-4.28-1.31-7-1.31-7Z"/><path class="cls-18" d="M119.11,289.78s-9-21.06-10.12-26.24c-.49-2.35-1.85-8.19-2.71-13-.28-1.58-.52-3.21-.72-4.8h0c-.81-6.36-1-12.16-1-12.16s-4.79-16.45,5.49-17.45a24.86,24.86,0,0,1,3.78,1.56c1.74,4,2.42,14.35,2.48,16.58,0,1.82,2.71,20.1,2.75,20.74.07,1.26,2.81,7.85,4.27,12.74,3.2,10.65,4.89,19.05,4.89,19.05Z"/><rect class="cls-19" x="98.63" y="253.24" width="46.35" height="40.54"/><rect class="cls-20" x="128.71" y="274.13" width="2.58" height="12.47"/><rect class="cls-20" x="132.29" y="277.41" width="2.58" height="9.19"/><rect class="cls-20" x="135.85" y="272.57" width="2.58" height="14.02"/><path class="cls-8" d="M134.33,291.27s-.27,5.47-3.21,6.41a10,10,0,0,1-7.48-.72c-1.36-.83-4.76-3.24-3.49-4.75C124.23,287.35,134.33,291.27,134.33,291.27Z"/><path class="cls-8" d="M132.83,296.35s3.67.27,3.47-1.29-2.84-.95-2.84-.95Z"/><rect class="cls-20" x="117.5" y="277.11" width="2.58" height="9.49"/><rect class="cls-20" x="121.17" y="276.15" width="2.58" height="10.45"/><rect class="cls-20" x="124.89" y="278.14" width="2.58" height="8.46"/><rect class="cls-20" x="113.7" y="278.14" width="2.58" height="8.46"/><path class="cls-20" d="M104.61,271.89l.07.1-.11.07-2.76,1.86-.07-.1L104.5,272Z"/><path class="cls-20" d="M114.58,272.42v.12h-.12l-7.91-.94h-.13v-.12h.12l7.91.94Z"/><path class="cls-20" d="M122.35,266.5l-.09.08-5.88,5.33-.09.08-.08-.09.09-.09,5.87-5.32.1-.08Z"/><path class="cls-20" d="M131.94,265.8v.07h-8v-.13h8Z"/><path class="cls-20" d="M138.79,259.49,133.7,265l-.09.09a.18.18,0,0,0-.09-.08l.09-.1,5.09-5.55Z"/><path class="cls-20" d="M105.45,270.35a1.1,1.1,0,0,0-1.1,1.1h0a1.08,1.08,0,0,0,.15.55l.07.11a1.12,1.12,0,0,0,.88.43,1.1,1.1,0,0,0,1.08-.9v-.19a1.09,1.09,0,0,0-1.08-1.1Zm1,1.27a1,1,0,0,1-1.72.42l-.07-.1a1.05,1.05,0,0,1-.13-.49,1,1,0,1,1,1.94,0h0a.54.54,0,0,0-.07.12Z"/><path class="cls-20" d="M116.38,271.91a.39.39,0,0,0-.08-.1,1.1,1.1,0,0,0-1.85.59v.2a1.1,1.1,0,0,0,2.19,0A1,1,0,0,0,116.38,271.91Zm-.85,1.66a1,1,0,0,1-1-1v-.18a1,1,0,0,1,1.63-.52l.08.09a1,1,0,0,1,.21.61A1,1,0,0,1,115.53,273.57Z"/><path class="cls-20" d="M124.12,265.74a1.1,1.1,0,1,0-2,.75l.09.09a1.09,1.09,0,0,0,1.86-.68v-.16Zm-1.09,1a1,1,0,0,1-.68-.27l-.08-.09a1,1,0,0,1-.21-.61,1,1,0,0,1,1.93-.06v.13a1,1,0,0,1-1,.93Z"/><path class="cls-20" d="M133.7,265l-.09-.09a1.12,1.12,0,0,0-.7-.24,1.09,1.09,0,0,0-1.09,1v.13a1.1,1.1,0,0,0,2.19-.07A1.08,1.08,0,0,0,133.7,265Zm-.79,1.73a1,1,0,0,1-1-.9v-.13a1,1,0,0,1,1-.91.92.92,0,0,1,.61.22.18.18,0,0,1,.09.08,1,1,0,0,1-.12,1.41A1.13,1.13,0,0,1,132.91,266.77Z"/><path class="cls-8" d="M45.92,290.55s-1.59,2.78-3.48,2.73a11.24,11.24,0,0,0-4.42,1.3c-.88.42-4.08.78-3.56,1.82s5.3-.36,6.36-.46-1.7,3.6-1.64,4.63,6.71,4.79,8.29,2,1.38-6.59,1.76-7a19.92,19.92,0,0,0,1.23-1.95Z"/><path class="cls-8" d="M39.39,299.85s-4.27,8.68-4,9.47.73,1,1.16.17,4.38-8.29,4.38-8.29-3.24,11-3.21,11.71c0,.4,1,.79,1.26.39s4.14-11.18,4.14-11.18-3,10.29-2.8,10.85a.8.8,0,0,0,1.09.32.87.87,0,0,0,.36-.42c.28-.75,3.63-10.17,3.63-10.17s-1.69,7.6-1.21,8c.3.23,1.11.6,1.48-1.37s1.76-6.56,1.76-6.56Z"/><path class="cls-17" d="M119.37,412.58s3.95,4.42,8,5.34,6.82,2.1,6.85,4.64-11.55,4.2-16.14,1.65c-6.85-3.81-7.55-2.67-8.31-4.57s.91-7,.86-7.61S119.37,412.58,119.37,412.58Z"/><path class="cls-21" d="M118.92,410.47a18.84,18.84,0,0,1,.45,2.11c-.08,0-9.05,1.11-8.78-.55.22-1.34.54-2.8.54-2.8Z"/><path class="cls-21" d="M78.91,411.61a16.93,16.93,0,0,1,.3,2c-.07,0-9.09,1.66-9,0a7.74,7.74,0,0,1,.84-2.82Z"/><path class="cls-14" d="M110.77,286.68s3.26,31.67,5,42.52c2,12.67,2.65,23.14,3.2,29.71.7,8.25.83,48.84,1.32,51.25s-10.8.67-10.8.67-5.55-53-7.63-61.83c-1.92-8.18-9.08-43.41-10.84-41.18s-4,41.12-5.29,47.53-5.27,57-5.27,57-9,1.79-11.37-.23c0,0-1.09-43.55-.26-55.65.32-4.61-5.4-55.29,1.93-75.69C74.64,270,110.77,286.68,110.77,286.68Z"/><path class="cls-22" d="M47.12,291.14s2.45,2.83,4.75,2.41,12-29.8,12-35.68c.07-4.77,2.68-17.36,2.68-17.36v.06c.25.94,3.78,14,3.9,20.28.13,6.52-.39,28.93-.39,28.93l8.73,2.34,27.87.26,6.36-2.6s-.7-7.21-1-12.27c-.16-3.21-.78-9-.62-14.58a51,51,0,0,1,.49-8.47c.06-11.24.74-22.37.74-22.37.38-5.1.64-9.86.79-14.31-1.23-.65-2.71-1.41-3.89-2-3.66-1.74-8.76-4.09-12-5.59-1.91-.88-3.79-1.52-3.79-1.52s-13.08-1.26-14.15-1.19a33.21,33.21,0,0,0-4.11,1.41c-4.64,1.76-13.58,5.34-15,6.37-2.09,1.49-6.5,37-6.7,39.51C53.46,259.28,47.12,291.14,47.12,291.14Z"/><path class="cls-23" d="M112.23,287.4s-19.15,1.63-35.92,0v5.5s25,2.39,36.76-1Z"/><path class="cls-18" d="M95.9,209.49s3.11,7.31,5.45,23.67c.9,6.28,2.56,16.85,3.77,27.64h0c1,8.5,3.13,17.23,3.82,23.74.72,6.75,2.88,26.63,2.88,26.63l5.23-3.3c.75-.7,1.8-1.6,1.5-2.57-1.44-4.65-4.2-20-5.83-33.42h0c-.08-.65-.15-1.29-.23-1.93v-.1c-.31-2.68-.56-5.24-.74-7.59A24,24,0,0,1,112,257c.73-12,1.09-24.7,1.09-24.7.39-5.19.61-10,.75-14.56C113.81,217.7,97.39,209.93,95.9,209.49Z"/><path class="cls-18" d="M64.31,258.14c-.41,5.45-10.39,37.31-11.72,37.21-2.33-.25-10.16-2.71-10.16-2.71s9.64-32.39,10-35.8c.24-2.48,4.2-39.75,6.29-41.24,1.2-.87,10.14-4,14.52-5.76.81-.32,3.45-1.32,4.17-1.59.93,1,7.43,8.08,9.69,34.81.39,4.51-.82,14-1.62,21.84-.86,8.3-1.81,14.79-2.51,21.73-1.37,13.7-2.33,24.59-2.33,24.59L67,305.11c-2.2-1.1-5.25-5.63-4.43-7.95,3.15-8.82,7.12-23.89,7.12-31.63,0,0-1.52-19-2.72-23.12A114.56,114.56,0,0,0,64.31,258.14Z"/><path class="cls-8" d="M87.75,174.25s13.65-5.06,12.8,13.1-4.06,20-13,17.46-9.78-14-11-19.46S83.28,175,87.75,174.25Z"/><path class="cls-24" d="M78.5,194.35s0-4.85,2-5.3,3,2.36,3,2.36l1.63-.09s-1.45-4.91.47-6,13.42-.14,14.86-1.79-.65-11.48-3.78-12.44-11.68-3-17.12,1.84c0,0-4.74.09-4.93,4S76.86,191.68,78.5,194.35Z"/><path class="cls-8" d="M82.76,187c-.6-1.6-4-1.4-3.66,1.14s3.16,6.44,4.29,5.71S83.59,189.16,82.76,187Z"/><path class="cls-25" d="M80.85,208.89s1.21-1-.52-10.08c-.46-2.43,12.82,2.9,12.82,2.9s-.11,2-.09,4a23.42,23.42,0,0,0,.11,2.51,9,9,0,0,0,.48,1.76C94.25,211.35,85.76,212.41,80.85,208.89Z"/><path class="cls-26" d="M93.17,208.21c-8-.1-10.54-6.16-10.62-6.35,4.2,4.25,10.51,3.84,10.51,3.84A23.42,23.42,0,0,0,93.17,208.21Z"/><path class="cls-27" d="M90,213.6l2.41,3.24a2.93,2.93,0,0,1-3.93.5Z"/><path class="cls-27" d="M91.68,217s9,34.52,7.12,61.39l-3,5.32L93,278.12s-.77-48.07-3.23-61.23Z"/><path class="cls-25" d="M92.54,210.57l-2.58,3s-4.16-.81-5.38-3S92.54,210.57,92.54,210.57Z"/><path class="cls-28" d="M93.14,207.92s-.3,2.31-3.18,5.68l3.14,4.22,1.7-8.76Z"/><path class="cls-28" d="M81.24,205.56s4.51,6.38,8.72,8l-2,4.83-8.88-10.75Z"/></g></g></g></g></svg>