<svg xmlns="http://www.w3.org/2000/svg" xmlns:xlink="http://www.w3.org/1999/xlink" viewBox="0 0 352.32 188.02"><defs><style>.cls-1{isolation:isolate;}.cls-2{fill:url(#_ÂÁ_Ï_ÌÌ_È_ËÂÌÚ_7);}.cls-3{fill:url(#_ÂÁ_Ï_ÌÌ_È_ËÂÌÚ_25);}.cls-4{mix-blend-mode:lighten;fill:url(#_ÂÁ_Ï_ÌÌ_È_ËÂÌÚ_14);}</style><radialGradient id="_ÂÁ_Ï_ÌÌ_È_ËÂÌÚ_7" cx="-28.33" cy="12.09" r="355.88" gradientUnits="userSpaceOnUse"><stop offset="0" stop-color="#42e8e0"/><stop offset="1" stop-color="#180d5b"/></radialGradient><radialGradient id="_ÂÁ_Ï_ÌÌ_È_ËÂÌÚ_25" cx="210.72" cy="146.66" r="332.41" gradientUnits="userSpaceOnUse"><stop offset="0" stop-color="#2b237c"/><stop offset="1" stop-color="#180d5b"/></radialGradient><linearGradient id="_ÂÁ_Ï_ÌÌ_È_ËÂÌÚ_14" x1="23.75" y1="130.12" x2="334.89" y2="130.12" gradientTransform="translate(19.19 -50.9) rotate(2.79)" gradientUnits="userSpaceOnUse"><stop offset="0" stop-color="#180d5b"/><stop offset="0.1" stop-color="#1a1761"/><stop offset="0.26" stop-color="#1f3372"/><stop offset="0.48" stop-color="#28608e"/><stop offset="0.73" stop-color="#349fb4"/><stop offset="1" stop-color="#42e8e0"/></linearGradient></defs><title>bg1</title><g class="cls-1"><g id="Layer_2" data-name="Layer 2"><g id="_ÎÓÈ_1" data-name="—ÎÓÈ_1"><path class="cls-2" d="M147.57,114.28c114.5,15.21,127.68,68.57,203.31,70.45V0H0C6.15,33.4,40.74,100.1,147.57,114.28Z"/><path class="cls-3" d="M151.34,112.73c116.26,17.38,124,73.38,201,75.29V0H28.61C34.88,34,58.94,98.91,151.34,112.73Z"/><path class="cls-4" d="M343.63,168.89c-20.07-4-35.47-12.45-53.3-22.21-28.16-15.39-60.06-32.85-121.18-38.12-90-7.77-119.45-67-129-101.58l1-.27C50.6,41.07,79.85,99.85,169.24,107.56c61.32,5.29,93.33,22.8,121.56,38.25,17.76,9.71,33.1,18.1,53,22.1Z"/></g></g></g></svg>