<svg xmlns="http://www.w3.org/2000/svg" xmlns:xlink="http://www.w3.org/1999/xlink" viewBox="0 0 320 318.18"><defs><style>.cls-1{isolation:isolate;}.cls-2{fill:url(#_ÂÁ_Ï_ÌÌ_È_ËÂÌÚ_7);}.cls-3{fill:url(#_ÂÁ_Ï_ÌÌ_È_ËÂÌÚ_25);}.cls-4{mix-blend-mode:lighten;fill:url(#_ÂÁ_Ï_ÌÌ_È_ËÂÌÚ_14);}.cls-5{fill:#160a5b;}.cls-6{fill:#24126a;}.cls-7{fill:url(#_ÂÁ_Ï_ÌÌ_È_ËÂÌÚ_12);}.cls-8{fill:url(#_ÂÁ_Ï_ÌÌ_È_ËÂÌÚ_12-2);}.cls-9{fill:url(#_ÂÁ_Ï_ÌÌ_È_ËÂÌÚ_2);}.cls-10{fill:#f0f6ff;}.cls-11{fill:#fcd1c5;}.cls-12{fill:url(#_ÂÁ_Ï_ÌÌ_È_ËÂÌÚ_12-3);}.cls-13{fill:url(#_ÂÁ_Ï_ÌÌ_È_ËÂÌÚ_12-4);}.cls-14{fill:#453c9e;}.cls-15{fill:#aa8383;}.cls-16{fill:#c4ccd6;}.cls-17{fill:#e2b1a6;}.cls-18{fill:#936d6d;}.cls-19{fill:url(#_ÂÁ_Ï_ÌÌ_È_ËÂÌÚ_12-5);}.cls-20{fill:url(#_ÂÁ_Ï_ÌÌ_È_ËÂÌÚ_12-6);}.cls-21{fill:url(#_ÂÁ_Ï_ÌÌ_È_ËÂÌÚ_2-2);}.cls-22{fill:#4846a5;}.cls-23{fill:url(#_ÂÁ_Ï_ÌÌ_È_ËÂÌÚ_44);}.cls-24{fill:url(#_ÂÁ_Ï_ÌÌ_È_ËÂÌÚ_2-3);}.cls-25{fill:#722318;}.cls-26{fill:url(#_ÂÁ_Ï_ÌÌ_È_ËÂÌÚ_2-4);}</style><radialGradient id="_ÂÁ_Ï_ÌÌ_È_ËÂÌÚ_7" cx="247.46" cy="277.93" r="210.24" gradientTransform="matrix(0.97, -0.04, 0.04, 0.98, 22.98, 45.01)" gradientUnits="userSpaceOnUse"><stop offset="0" stop-color="#42e8e0"/><stop offset="1" stop-color="#180d5b"/></radialGradient><radialGradient id="_ÂÁ_Ï_ÌÌ_È_ËÂÌÚ_25" cx="212.22" cy="119.11" r="186.81" gradientUnits="userSpaceOnUse"><stop offset="0" stop-color="#2b237c"/><stop offset="1" stop-color="#180d5b"/></radialGradient><linearGradient id="_ÂÁ_Ï_ÌÌ_È_ËÂÌÚ_14" x1="31.98" y1="200.84" x2="306.14" y2="200.84" gradientUnits="userSpaceOnUse"><stop offset="0" stop-color="#180d5b"/><stop offset="0.1" stop-color="#1a1761"/><stop offset="0.26" stop-color="#1f3372"/><stop offset="0.48" stop-color="#28608e"/><stop offset="0.73" stop-color="#349fb4"/><stop offset="1" stop-color="#42e8e0"/></linearGradient><linearGradient id="_ÂÁ_Ï_ÌÌ_È_ËÂÌÚ_12" x1="179.57" y1="119.83" x2="237.45" y2="134.35" gradientUnits="userSpaceOnUse"><stop offset="0" stop-color="#42e8e0"/><stop offset="0" stop-color="#42e6df"/><stop offset="0.14" stop-color="#40b6cb"/><stop offset="0.27" stop-color="#3e8db9"/><stop offset="0.41" stop-color="#3c6baa"/><stop offset="0.55" stop-color="#3b519f"/><stop offset="0.69" stop-color="#3a3f97"/><stop offset="0.84" stop-color="#393493"/><stop offset="1" stop-color="#393091"/></linearGradient><linearGradient id="_ÂÁ_Ï_ÌÌ_È_ËÂÌÚ_12-2" x1="488.86" y1="76.89" x2="436.99" y2="68.44" gradientTransform="matrix(-1, 0, 0, 1, 666.81, 0)" xlink:href="#_ÂÁ_Ï_ÌÌ_È_ËÂÌÚ_12"/><linearGradient id="_ÂÁ_Ï_ÌÌ_È_ËÂÌÚ_2" x1="1055.16" y1="122.37" x2="1068.48" y2="122.37" gradientTransform="matrix(1, 0.06, -0.06, 1, -855.64, -84.07)" gradientUnits="userSpaceOnUse"><stop offset="0" stop-color="#5761d7"/><stop offset="0.07" stop-color="#5472d8"/><stop offset="0.28" stop-color="#4e9cdb"/><stop offset="0.48" stop-color="#49bddd"/><stop offset="0.67" stop-color="#45d5df"/><stop offset="0.85" stop-color="#43e3e0"/><stop offset="1" stop-color="#42e8e0"/></linearGradient><linearGradient id="_ÂÁ_Ï_ÌÌ_È_ËÂÌÚ_12-3" x1="491.82" y1="72.09" x2="466.8" y2="59.93" gradientTransform="matrix(-1, 0, 0, 1, 666.81, 0)" xlink:href="#_ÂÁ_Ï_ÌÌ_È_ËÂÌÚ_12"/><linearGradient id="_ÂÁ_Ï_ÌÌ_È_ËÂÌÚ_12-4" x1="477.49" y1="83.11" x2="433.44" y2="65.66" gradientTransform="matrix(-1, 0, 0, 1, 666.81, 0)" xlink:href="#_ÂÁ_Ï_ÌÌ_È_ËÂÌÚ_12"/><linearGradient id="_ÂÁ_Ï_ÌÌ_È_ËÂÌÚ_12-5" x1="164.78" y1="153.16" x2="116.1" y2="172.97" xlink:href="#_ÂÁ_Ï_ÌÌ_È_ËÂÌÚ_12"/><linearGradient id="_ÂÁ_Ï_ÌÌ_È_ËÂÌÚ_12-6" x1="161.08" y1="87.01" x2="109.02" y2="97.95" xlink:href="#_ÂÁ_Ï_ÌÌ_È_ËÂÌÚ_12"/><linearGradient id="_ÂÁ_Ï_ÌÌ_È_ËÂÌÚ_2-2" x1="4.39" y1="19.62" x2="6.59" y2="19.62" gradientTransform="matrix(-1, -0.09, -0.09, 1, 129.71, 29.29)" xlink:href="#_ÂÁ_Ï_ÌÌ_È_ËÂÌÚ_2"/><linearGradient id="_ÂÁ_Ï_ÌÌ_È_ËÂÌÚ_44" x1="198.1" y1="147.6" x2="148.37" y2="169.73" gradientUnits="userSpaceOnUse"><stop offset="0" stop-color="#42e8e0"/><stop offset="0.11" stop-color="#40c1cf"/><stop offset="0.25" stop-color="#3e91bb"/><stop offset="0.4" stop-color="#3c6cab"/><stop offset="0.53" stop-color="#3b519f"/><stop offset="0.64" stop-color="#3a4198"/><stop offset="0.73" stop-color="#3a3b96"/><stop offset="0.84" stop-color="#393493"/><stop offset="1" stop-color="#393091"/></linearGradient><linearGradient id="_ÂÁ_Ï_ÌÌ_È_ËÂÌÚ_2-3" x1="-31.33" y1="121.67" x2="-27.48" y2="121.67" gradientTransform="matrix(-1, -0.09, -0.09, 1, 129.71, 29.29)" xlink:href="#_ÂÁ_Ï_ÌÌ_È_ËÂÌÚ_2"/><linearGradient id="_ÂÁ_Ï_ÌÌ_È_ËÂÌÚ_2-4" x1="-38.61" y1="114.37" x2="-34.77" y2="114.37" gradientTransform="matrix(-1, -0.09, -0.09, 1, 129.71, 29.29)" xlink:href="#_ÂÁ_Ï_ÌÌ_È_ËÂÌÚ_2"/></defs><title>EA</title><g class="cls-1"><g id="Layer_2" data-name="Layer 2"><g id="_ÎÓÈ_1" data-name="—ÎÓÈ_1"><path class="cls-2" d="M.14,164.54c2.05-27.75,28-41,40.79-47C72.17,102.94,135,95.09,230.71,135.16c70,29.3,87.41,68.36,89,97.46,1.24,22.85.06,47.77-35.14,70.95-31.95,21-92.84,25.16-137.3-27.43C90.44,208.93-4.2,223.36.14,164.54Z"/><path class="cls-3" d="M15.72,150.85c1.64-11.71,15.47-22.14,27.92-27.4,30.39-12.85,103.54-34,193.72,7.45,65.93,30.32,81.25,68.12,81.76,95.88a56.37,56.37,0,0,1-31.61,51.46c-32.86,16.12-98.76,35.82-139.47-15.79C96,196.48,6.72,215,15.72,150.85Z"/><path class="cls-4" d="M217.67,286.46c-21.64,0-44-7.47-61.9-30.2-21.4-27.13-51.78-40.21-76.18-50.72C50.32,192.94,27.2,183,32.84,155.88l.51.11-.51-.11C34.94,145.75,48.6,135,60.37,130c30.28-12.8,92.9-28.84,172.09,7.59,60.1,27.64,73.24,62.3,73.68,86.51a51.24,51.24,0,0,1-28.66,46.66C262.28,278.24,240.36,286.46,217.67,286.46ZM135.41,116.27A192.24,192.24,0,0,0,60.78,131c-11.69,4.94-25,15.69-26.92,25.12C28.39,182.36,51.17,192.16,80,204.58c24.52,10.55,55,23.69,76.59,51,36.27,46,91,28.66,120.43,14.23a50.17,50.17,0,0,0,28.07-45.7c-.43-23.91-13.46-58.16-73.06-85.58C195.83,121.91,163.12,116.27,135.41,116.27Z"/><path class="cls-5" d="M206.64,154.52s-.77.81-1.57,1.75a21.27,21.27,0,0,1-4,2.86c-.94.59-5.27,3.87-6.18,7.1s2.19,3.66,5.36,3.1,6.12-3.48,7-4.54a30,30,0,0,1,7.75-5.46c3.88-2,1.54-4.71,1.54-4.71Z"/><path class="cls-5" d="M235.49,164.13a12,12,0,0,1,.82,3.32c.19,1.87.45,5.92.54,7.11a10,10,0,0,1-1.95,6.87c-2.08,2.77-3.16,3.87-5.94,2.78s-2.71-5.75-2.22-8.14a65.06,65.06,0,0,0,.9-8.32,1.66,1.66,0,0,1,.16-.92Z"/><path class="cls-6" d="M197.07,99.59s.59,21.35,5.56,32.69a82.66,82.66,0,0,1,4,21.85,4.23,4.23,0,0,0,.34,3.71c1.17,1.66,8.47,3.18,9.68-2.28s.74-15.67-.59-19.93.48-16,.48-16,2,1.27,4.61,9.71a111,111,0,0,0,5.44,14c.9,2.33,1.73,16.62,1.16,23.6,0,0,5.92.84,7.63-2s2.28-17.46,1.85-22.12-2.39-19.61-2.12-24.23,1.23-8.38.17-13-32.27-14.87-32.27-14.87Z"/><path class="cls-7" d="M197.07,99.59s.59,21.35,5.56,32.69a82.66,82.66,0,0,1,4,21.85,4.23,4.23,0,0,0,.34,3.71c1.17,1.66,8.47,3.18,9.68-2.28s.74-15.67-.59-19.93.48-16,.48-16,2,1.27,4.61,9.71a111,111,0,0,0,5.44,14c.9,2.33,1.73,16.62,1.16,23.6,0,0,5.92.84,7.63-2s2.28-17.46,1.85-22.12-2.39-19.61-2.12-24.23,1.23-8.38.17-13-32.27-14.87-32.27-14.87Z"/><path class="cls-5" d="M235.15,118.59c.27-4.62,1.23-8.38.17-13-.39-1.73-5-4.26-10.71-6.75C215.05,98,202.94,97,202.1,97.08a32.86,32.86,0,0,0-4.36,1.52l-.67,1s0,1.3.16,3.42c2.23.67,6.52,0,6.52,0a23.08,23.08,0,0,0,9,9.12c4.62,2.3,18.17,1.51,18.95,2.38s.93,12.57.84,14,1.28,10.84,2.54,19.12-.65,18-.71,18.35a3.38,3.38,0,0,0,1.09-1.07c1.71-2.83,2.28-17.46,1.85-22.12S234.88,123.21,235.15,118.59Z"/><path class="cls-8" d="M207.52,29.76s-6.93,1.58-9.26,2.13a1.21,1.21,0,0,0-.84.73c-.67,1.7-2.36,7-1.09,14.72a73.48,73.48,0,0,1,1.07,15.88l-3.2,16.67s-4,15.88-3.68,16.31,9.27,7.23,12.06,6.27,1.87-2.53,1.87-2.53,2.26,11.51,12.26,11.4,18.18-.08,19.87-4.13-.46-21-2.22-27.76-6-20.15-6-20.15l14.65-16.21-12.52-9.56s-3-5.56-4.22-6.27-1.87-.11-1.87-.11Z"/><path class="cls-9" d="M202.75,98.81c0,.58-.33,1.44-2.13,2s-6.7-2.22-9.82-4.4c1.56,1.29,9.23,6.89,11.78,6a4.52,4.52,0,0,0,1.25-.62A20.33,20.33,0,0,1,202.75,98.81Z"/><path class="cls-10" d="M226,27.12s2.55,3.1-1.13,7.28a99.78,99.78,0,0,0-9.48,13.87c-2.07,3.59-4,5.51-5.08,8.6,0,0-.15-3.67-.29-9.34a122,122,0,0,1,0-12.3C210.58,32.34,223.21,25.72,226,27.12Z"/><path class="cls-11" d="M216.47,36.43s-1.31.82-1.76.75a8.65,8.65,0,0,1-1.9-1.48s-3.63-.06-4-1.62a36.69,36.69,0,0,0-1-3.93c-.37-.81-1.94-4.69-1.95-6.26s.05-4.39-.63-5.88S203.58,1.62,218,2s9.92,15.36,9.92,15.36,1.05.45.41,2.37-.78,2.12-1.1,3.08a4.28,4.28,0,0,1-1.4,2.34L225.56,27a7.15,7.15,0,0,1-1.1,5.34C222.67,34.93,216.47,36.43,216.47,36.43Z"/><path class="cls-6" d="M197.87,32.06s-1.54.23-6.51,12.75c-2.78,7-7.07,14.23-8,19.42S183,75,184,75.37l24.47,9.18a.52.52,0,0,0,.7-.4l1.55-8.64-11.1-4.29a16,16,0,0,0-4.1-3.55s2.22-4.1,2.08-5.22.2-12.71-1.1-17.42S197.87,32.06,197.87,32.06Z"/><path class="cls-12" d="M197.87,32.06s-1.54.23-6.51,12.75c-2.78,7-7.07,14.23-8,19.42S183,75,184,75.37l24.47,9.18a.52.52,0,0,0,.7-.4l1.55-8.64-11.1-4.29a16,16,0,0,0-4.1-3.55s2.22-4.1,2.08-5.22.2-12.71-1.1-17.42S197.87,32.06,197.87,32.06Z"/><path class="cls-11" d="M204.37,65.16s-1.53-1-1.91-1.18-2.42-.84-2.81-1a7.71,7.71,0,0,0-2.08,0,.63.63,0,0,0-.5.33c-.48.88-1.79,3.43-1.64,4.4,0,0,3.69,2.34,4.1,3.38l.59.12S202.6,65.93,204.37,65.16Z"/><path class="cls-6" d="M234.36,79.45c-.43-1.62-1-3.63-1.61-5.74l-22.48,9.63a23.7,23.7,0,0,0,18.52,7.75,15.56,15.56,0,0,0,7.31-2.31A92.42,92.42,0,0,0,234.36,79.45Z"/><path class="cls-6" d="M243.05,43.09s-5.93.81-10.72,8.41a114.76,114.76,0,0,0-8.28,16.37l-.16,1a4,4,0,0,1-5.58,3c-5.05-2.26-12.54-5.68-13.94-6.7a12.86,12.86,0,0,0-5.7,8.32c-1,4.67-.73,4.68-.73,4.68s20,9.32,27.67,9.23S243.1,62,244.18,56.71,246.44,44.57,243.05,43.09Z"/><path class="cls-13" d="M243.05,43.09s-5.93.81-10.72,8.41a114.76,114.76,0,0,0-8.28,16.37l-.16,1a4,4,0,0,1-5.58,3c-5.05-2.26-12.54-5.68-13.94-6.7a12.86,12.86,0,0,0-5.7,8.32c-1,4.67-.73,4.68-.73,4.68s20,9.32,27.67,9.23S243.1,62,244.18,56.71,246.44,44.57,243.05,43.09Z"/><path class="cls-14" d="M221.18,73s2.52,2.35,3.61,1.06.78-1.43.78-1.43,2.26,0,2.54-1.44,1.39-.67,1.45-2.25-1.83-1.26-1.83-1.26Z"/><path class="cls-11" d="M218.14,71.78s.69-.65,1.58-1.4,2.34-3.89,2.58-4.16,3.26-2.59,4.71-2.63.38,1.59,0,1.82-1.75.93-1.75.93-1.46,1.23-1.63,1.4,4.06-.29,4.73.13a1.14,1.14,0,0,1,0,1.78,1.65,1.65,0,0,1-.83.28,1.47,1.47,0,0,1-.79,1.86c-1.27.59-1.56.26-1.56.26s-.11,2.2-2.2,1.76Z"/><path class="cls-15" d="M204.85,10.39s-1.88,6,3.07,4.28,9.41-4.55,11-3.47c1.18.83,1.12,3.36,1,4.52a1.71,1.71,0,0,0,.3,1.12L221.68,19a1.59,1.59,0,0,1,.29.81l.1,1.48a.75.75,0,0,0,.7.69l.34,0a.74.74,0,0,0,.77-.61l.38-2.18s1.17-2.93,3.63-1.78c0,0,1.64-2.21,1.1-6.94S226.32.83,217.05,0,204.85,10.39,204.85,10.39Z"/><path class="cls-16" d="M219,41.7l-1.38-1.08a7.5,7.5,0,0,0-1.79,2.2c-.5,1.13,0,4.72,0,4.72l-.42.73-.52-1-.44-4.25s.47-3.14.52-3.22,2.68.28,2.68.28A5.3,5.3,0,0,1,219,41.7Z"/><path class="cls-16" d="M212.35,37.47a4.64,4.64,0,0,0-2.15.65l1.81.1C212.25,38.25,212.35,37.47,212.35,37.47Z"/><path class="cls-6" d="M215.18,37.8l2.49,2.33a5.64,5.64,0,0,0-2.8,2.95s-2.71.51-3-.47,0-3.45-.32-4.55S215.18,37.8,215.18,37.8Z"/><path class="cls-6" d="M212,42.55a14.17,14.17,0,0,1-1,2.88c-.51.84-1,1.78-1,1.78l.06,11.94s4.39-9,5.34-10.88c0,0-.14-4.36-.56-5.19S212,42.55,212,42.55Z"/><path class="cls-17" d="M223.81,24.91c-2.89,8.32-11,10.79-11,10.79a8.65,8.65,0,0,0,1.9,1.48c.45.07,1.76-.75,1.76-.75s6.2-1.5,8-4.13a7.15,7.15,0,0,0,1.1-5.34l.24-1.77A2,2,0,0,1,223.81,24.91Z"/><path class="cls-6" d="M230.41,34.65s-1.14,3.93-1.29,4.08a17.32,17.32,0,0,1-2.86-.17l1.32,2.5s-13.66,14.65-16.49,22.53a166.76,166.76,0,0,1,17.84-21.92l-1.61-2.43,2.79.54Z"/><path class="cls-6" d="M208,31.18l-.73.83.85.8-2.52,2.28s-.77,16,2.31,26.64c0,0-4.19-9.74-3.24-27.08l2.74-1.85-.9-.88Z"/><path class="cls-5" d="M216.58,119.63l.09.07-3.54-3.77c1.64,2.31-.25,12.86-.44,15.27s1.89,7.4,2.67,13.25-.82,14.16-.82,14.19a4.53,4.53,0,0,0,2.15-3.08c1.21-5.46.74-15.67-.59-19.93S216.58,119.63,216.58,119.63Z"/><path class="cls-18" d="M223.11,22a.74.74,0,0,0,.77-.61l.38-2.18s1.17-2.93,3.63-1.78c0,0,1.55-2.1,1.13-6.56-2.73,4.1-8.8,6-8.8,6L221.68,19a1.59,1.59,0,0,1,.29.81l.1,1.48a.75.75,0,0,0,.7.69Z"/><path class="cls-5" d="M134.27,195.08a36.07,36.07,0,0,0,6.24.9c3.07.12,11.41,1.79,11.21,4.91s-4.57,7.62-10,8.29-12.5-.91-16.07-.81a5,5,0,0,1-4.61-7C122.39,197.87,134.27,195.08,134.27,195.08Z"/><path class="cls-5" d="M115.85,186.7s-1.17,1.89-.6,3,2.11,4,7.1,1.25,14.58-6.73,14.58-6.73,5.5-2.93,5.2-6.38-5.36-2.93-5.36-2.93Z"/><path class="cls-6" d="M148.28,137.69s-2.12,22.44-6.63,30.95-5.85,24.48-6.81,27.5-3.93,7.41-8.61,8.34-5.45-2.26-5.22-4.17,1.53-5,1.55-7.06a21.76,21.76,0,0,0-.53-4s-5.37,1.58-6.18-2.58a12.42,12.42,0,0,0,.51-1.82c.07-.62-.46-15.65-.59-17.47a76.9,76.9,0,0,1,2.34-16.47c1.47-4.8,1-15,1-15l15.26-2.13Z"/><path class="cls-19" d="M148.28,137.69s-2.12,22.44-6.63,30.95-5.85,24.48-6.81,27.5-3.93,7.41-8.61,8.34-5.45-2.26-5.22-4.17,1.53-5,1.55-7.06a21.76,21.76,0,0,0-.53-4s-5.37,1.58-6.18-2.58a12.42,12.42,0,0,0,.51-1.82c.07-.62-.46-15.65-.59-17.47a76.9,76.9,0,0,1,2.34-16.47c1.47-4.8,1-15,1-15l15.26-2.13Z"/><path class="cls-5" d="M123.61,137.56a17.26,17.26,0,0,0,1.52,6.45s0,11.93,1.2,18c0,0-2,12.13-3.22,16S122,189.28,122,189.28a5.57,5.57,0,0,1-1.49.26c-.87,0-.94-14.83.41-17.45s2.35-14.19,1.84-17.72-.33-13.55-1-15.32a2.24,2.24,0,0,1,.83-2.7Z"/><path class="cls-5" d="M136.46,56.59a11,11,0,0,1,4.21,8.75l-3.3-.71S138.35,58.5,136.46,56.59Z"/><path class="cls-5" d="M134.73,142.45c-10.11.31-15.57-4.18-15.57-4.18,0-1.41-.07-2.34-.07-2.34l15.26-2.13,13.93,3.89s-.42,4.43-1.28,10.09c-2.48.27-4.92-5.82-4.92-5.82l-6.94.44S144.84,142.14,134.73,142.45Z"/><path class="cls-14" d="M146.33,138s-22,9-32.63-8.05a3,3,0,0,1-.42-1.67l.14-4a4.23,4.23,0,0,0-.22-1.47h0a6.42,6.42,0,0,1-.22-3.17c.83-4.44,3.06-16.5,3.58-19.84.64-4.08-1.53-20.42-5.17-27.49S117,49.7,117,49.7a6,6,0,0,1,6.71-2.41s-4.24,3-1.92,6.09S131.09,59,131.09,59,144,65.7,148.35,73.82A34.13,34.13,0,0,1,150,83.38c.13,5.4-.47,18.36-.24,20.16s.91,14.15.84,14.72S146.33,138,146.33,138Z"/><path class="cls-20" d="M146.33,138s-22,9-32.63-8.05a3,3,0,0,1-.42-1.67l.14-4a4.23,4.23,0,0,0-.22-1.47h0a6.42,6.42,0,0,1-.22-3.17c.83-4.44,3.06-16.5,3.58-19.84.64-4.08-1.53-20.42-5.17-27.49S117,49.7,117,49.7a6,6,0,0,1,6.71-2.41s-4.24,3-1.92,6.09S131.09,59,131.09,59,144,65.7,148.35,73.82A34.13,34.13,0,0,1,150,83.38c.13,5.4-.47,18.36-.24,20.16s.91,14.15.84,14.72S146.33,138,146.33,138Z"/><path class="cls-21" d="M121.66,49.56a3.15,3.15,0,0,1,.08-2.49,6.55,6.55,0,0,1,2,.22A7.9,7.9,0,0,0,121.66,49.56Z"/><path class="cls-6" d="M139.66,139.86s-13-35-12.33-47.67c.6-12.38,18.9,25.08,18.9,25.08l.1,20.75A39.87,39.87,0,0,1,139.66,139.86Z"/><path class="cls-22" d="M146.65,98.54a56.41,56.41,0,0,1-.77-8.58c-.06-5-1.46-13.22-10.46-11.79-12.72,2-7.28,19.85-5.88,23s7,17.25,7.26,18.05,9.07,18.38,12.21,22.61a.78.78,0,0,0,1.15.14c1.27-1.08,4.14-3.67,4.51-5.31.48-2.1-1.35-9.72-1.35-9.72s-5-19.05-5.38-19.94C147.63,106.3,147.41,103.17,146.65,98.54Z"/><path class="cls-11" d="M136.24,57a4.49,4.49,0,0,1,3.34-2.54c2.34-.24,3.66-.88,3.9-1.75a15.81,15.81,0,0,1,.81-3.19,23.91,23.91,0,0,0,1-4.52c0-.07,1.77-.61,1.85-1.39s-.83-3.56-.73-3.78a7,7,0,0,0,.92-3.25,16.36,16.36,0,0,0-1-4.87c-.7-1.62-5.64-11.48-18.51-6.4s-3.12,16.05-4.4,23.13c0,0-1.16,1.49,1,4S132.69,55.56,136.24,57Z"/><path class="cls-17" d="M124.4,52.46c-2.12-2.53-1-4-1-4a9.82,9.82,0,0,0,0-3.15l5.09,1s7.52-6.69,7-3.11,1.29,4.23,1.29,4.23l-1.55,2c-.39.51-.16,1.1.17,1.66,2.14,3.69,7.35,2.58,7.36,2.58a7.47,7.47,0,0,1-3.18.88A4.49,4.49,0,0,0,136.24,57C132.69,55.56,126.53,55,124.4,52.46Z"/><path class="cls-15" d="M146.91,28s.9,2.64-.56,3.75-2.77,2.17-2.77,2.17v3.35a2.48,2.48,0,0,1-.4,1.35l-1.83,2.83a3.37,3.37,0,0,0-.55,1.85v1.37a.79.79,0,0,1-.69.78l-.48.05a.77.77,0,0,1-.85-.7l-.2-1.9s-1-1.53-3.08.29l-1.9.78a2.06,2.06,0,0,0-1.15,1.2c-.53,1.46-1.67,4.35-2.52,4.83-1.15.65-5.6-1.65-6.19-2.67s-2.1-7.8-3-11-.38-11.16,9.21-13.19S145.59,25.09,146.91,28Z"/><path class="cls-18" d="M123.73,47.29c-.6-1-2.1-7.8-3-11a23.44,23.44,0,0,0,8.52,3.2c4.82.74,14.36-4.69,14.36-4.69v2.46a2.48,2.48,0,0,1-.4,1.35l-1.83,2.83a3.37,3.37,0,0,0-.55,1.85v1.37a.79.79,0,0,1-.69.78l-.48.05a.77.77,0,0,1-.85-.7l-.2-1.9s-1-1.53-3.08.29l-2.75,1.13s-1.67,5-2.82,5.68S124.32,48.31,123.73,47.29Z"/><path class="cls-10" d="M123.54,47.62s-3.73,2.29-1.87,5.55,15.38,9.1,16,10c0,0,.54-4.88-1.25-6.54,0,0-10.35-2-12-4.65S123.54,47.62,123.54,47.62Z"/><path class="cls-16" d="M123.54,47.62s-.63,1.69,1,4.32c1.21,2,7.43,3.64,10.38,4.32h0s-1.1.62-2.93,3.75c-4.16-2.16-9.2-4.93-10.29-6.84C119.81,49.91,123.54,47.62,123.54,47.62Z"/><path class="cls-6" d="M121,58s6,3.44,9,5,6.15,3.64,6.15,3.64l1.12-1.12,1.35,3a40.09,40.09,0,0,1,6.79,5.09,23.49,23.49,0,0,1,4,6s-5.77-7.57-10.31-9.82l-1.23-.62-.69-2.35-1.12,1.18S122.85,60.09,121,58Z"/><path class="cls-14" d="M136.54,160.15h0a3,3,0,0,1,.8-1.29l24.76-20.78c.65-.55,1.28-.13,1.41.93l2.89,24.2a3.87,3.87,0,0,1-1,3.06l-20.79,18,.72,7-6.22-2.86h0a1.5,1.5,0,0,1-.54-1.19l-2.31-25.29A4.18,4.18,0,0,1,136.54,160.15Z"/><path class="cls-14" d="M168.84,140.45,163,137.92l-.19-.08a.81.81,0,0,0-.7.23l-24.76,20.78a3,3,0,0,0-.8,1.29l.88.43h0l5,2.44,21.7-18.56h0Z"/><path class="cls-6" d="M171.53,169,146.22,191c-.7.61-1.35.14-1.47-1l-2.46-25.42a4,4,0,0,1,1-3.06L168,140.64c.65-.55,1.29-.13,1.42.93l3,24.32A3.88,3.88,0,0,1,171.53,169Z"/><path class="cls-23" d="M171.53,169,146.22,191c-.7.61-1.35.14-1.47-1l-2.46-25.42a4,4,0,0,1,1-3.06L168,140.64c.65-.55,1.29-.13,1.42.93l3,24.32A3.88,3.88,0,0,1,171.53,169Z"/><path class="cls-5" d="M141.61,188.51l-2.39-25.35a4,4,0,0,1,1-3L165,139.28a.85.85,0,0,1,.58-.24.76.76,0,0,0-.79.19l-24.73,20.84a3.93,3.93,0,0,0-1,3l2.38,25.35c.08.81.39,1.31.82,1.33C141.89,189.65,141.67,189.18,141.61,188.51Z"/><path class="cls-5" d="M150.67,151.19l-1.29-.65a1.3,1.3,0,0,0-.81-.14l-.1,0c-.13,0-.2.17-.18.37l0,.23,3.64,1.82,0-.23a1.23,1.23,0,0,0-.28-.6l-.12-.13A3,3,0,0,0,150.67,151.19Z"/><polygon class="cls-5" points="150.21 154.32 151.96 152.84 148.35 150.5 146.62 151.94 150.21 154.32"/><path class="cls-24" d="M148.92,152.66l-1.29-.65a1.29,1.29,0,0,0-.81-.14l-.1,0c-.13,0-.2.17-.18.37l0,.23,3.64,1.83,0-.24a1.11,1.11,0,0,0-.28-.59l-.12-.14A3,3,0,0,0,148.92,152.66Z"/><polygon class="cls-25" points="148.15 153.29 148.04 152.22 148.15 152.27 148.26 153.34 148.15 153.29"/><polygon class="cls-25" points="148.04 152.22 149.84 150.77 149.93 150.82 148.15 152.27 148.04 152.22"/><path class="cls-5" d="M158.54,144.58l-1.3-.64a1.14,1.14,0,0,0-.8-.14l-.1,0c-.13,0-.19.16-.17.36l0,.23,3.64,1.8,0-.23a1.11,1.11,0,0,0-.28-.59l-.12-.13A2.92,2.92,0,0,0,158.54,144.58Z"/><polygon class="cls-5" points="158.1 147.67 159.83 146.21 156.22 143.9 154.52 145.32 158.1 147.67"/><path class="cls-26" d="M156.81,146l-1.29-.64a1.29,1.29,0,0,0-.81-.14l-.1,0c-.13,0-.19.17-.17.36l0,.23,3.64,1.81,0-.24a1.16,1.16,0,0,0-.28-.58l-.13-.14A2.92,2.92,0,0,0,156.81,146Z"/><polygon class="cls-25" points="156.04 146.65 155.93 145.59 156.03 145.65 156.15 146.7 156.04 146.65"/><polygon class="cls-25" points="155.93 145.59 157.7 144.16 157.79 144.21 156.03 145.65 155.93 145.59"/><path class="cls-14" d="M147.34,147.15l.47,4.51,1.17-1-.46-4.39a2.35,2.35,0,0,1,.7-1.84l5-4.21c.45-.38.87-.17.94.46l.49,4.34,1.15-1-.5-4.45c-.16-1.39-1.09-1.85-2.08-1l-5.37,4.48A5.22,5.22,0,0,0,147.34,147.15Z"/><path class="cls-14" d="M156,139.93l-2.08-.21-6,5.6-.26,3.46.12,2.88,1.34.68,0-3.6.07-2.46,1.25-1.78s2.25-1.82,2.27-1.87S156,139.93,156,139.93Z"/><polygon class="cls-14" points="157.03 145.7 155.69 145.04 155.33 141.84 156.61 141.94 156.99 142.01 157.03 145.7"/><path class="cls-14" d="M157,139l-1.44-.71.38.78.49.17Z"/><path class="cls-5" d="M148.68,147.82l.47,4.52,1.17-1-.46-4.39a2.33,2.33,0,0,1,.7-1.85l5-4.21c.45-.38.88-.17.95.46l.49,4.34,1.15-1-.51-4.45c-.15-1.4-1.08-1.86-2.07-1l-5.38,4.49A5.19,5.19,0,0,0,148.68,147.82Z"/><path class="cls-11" d="M154.31,136.44s.86,4.41.62,5.52a7.38,7.38,0,0,1-3.63,3.64c-1.27.39-.75-1.13-1-2.08a14,14,0,0,1-.23-3Z"/><path class="cls-17" d="M150,140.5l4.28-4.06s.18.91.35,2a10.78,10.78,0,0,1-4.51,4.58A17.39,17.39,0,0,1,150,140.5Z"/><path class="cls-22" d="M154.63,136.77s-1.52,4.75-5.33,5.2l1.3-5.2s3.21-.91,3.31-.92S154.63,136.77,154.63,136.77Z"/></g></g></g></svg>