<svg xmlns="http://www.w3.org/2000/svg" xmlns:xlink="http://www.w3.org/1999/xlink" viewBox="0 0 395.93 331.04"><defs><style>.cls-1{fill:none;}.cls-2,.cls-26,.cls-30,.cls-9{fill:#242993;}.cls-2{opacity:0.5;}.cls-3{fill:#ffd85a;}.cls-4{fill:#f2b42a;}.cls-5{fill:#dd821f;}.cls-6{fill:#f9bf30;}.cls-7{fill:url(#_ÂÁ_Ï_ÌÌ_È_ËÂÌÚ_28);}.cls-8{fill:url(#_ÂÁ_Ï_ÌÌ_È_ËÂÌÚ_29);}.cls-10{opacity:0.51;}.cls-11,.cls-28{fill:#4553c7;}.cls-12{fill:url(#_ÂÁ_Ï_ÌÌ_È_ËÂÌÚ_29-2);}.cls-13{fill:url(#_ÂÁ_Ï_ÌÌ_È_ËÂÌÚ_28-2);}.cls-14{fill:#2859cb;}.cls-15{fill:#adc8ff;}.cls-16{fill:#91afff;}.cls-17{fill:url(#_ÂÁ_Ï_ÌÌ_È_ËÂÌÚ_28-3);}.cls-18{opacity:0.11;}.cls-19{clip-path:url(#clip-path);}.cls-20{fill:url(#_ÂÁ_Ï_ÌÌ_È_ËÂÌÚ_28-4);}.cls-21{fill:url(#_ÂÁ_Ï_ÌÌ_È_ËÂÌÚ_28-5);}.cls-22,.cls-23{opacity:0.42;}.cls-22{fill:url(#_ÂÁ_Ï_ÌÌ_È_ËÂÌÚ_36);}.cls-23{fill:url(#_ÂÁ_Ï_ÌÌ_È_ËÂÌÚ_36-2);}.cls-24{fill:url(#_ÂÁ_Ï_ÌÌ_È_ËÂÌÚ_35);}.cls-25{fill:url(#_ÂÁ_Ï_ÌÌ_È_ËÂÌÚ_28-6);}.cls-26{opacity:0.6;}.cls-27{opacity:0.96;fill:url(#_ÂÁ_Ï_ÌÌ_È_ËÂÌÚ_40);}.cls-28{opacity:0.8;}.cls-29{opacity:0.32;}.cls-30{opacity:0.2;}</style><linearGradient id="_ÂÁ_Ï_ÌÌ_È_ËÂÌÚ_28" x1="-306.41" y1="110.79" x2="-119.48" y2="110.79" gradientTransform="matrix(-1, 0, 0, 1, 13.59, 0)" gradientUnits="userSpaceOnUse"><stop offset="0" stop-color="#c0d6ff"/><stop offset="0.3" stop-color="#c5dbff"/><stop offset="0.65" stop-color="#d3e9ff"/><stop offset="1" stop-color="#e9ffff"/></linearGradient><linearGradient id="_ÂÁ_Ï_ÌÌ_È_ËÂÌÚ_29" x1="-306.41" y1="158.73" x2="-274.31" y2="158.73" gradientTransform="matrix(-1, 0, 0, 1, 13.59, 0)" gradientUnits="userSpaceOnUse"><stop offset="0" stop-color="#5778ff"/><stop offset="0.18" stop-color="#5c7dff"/><stop offset="0.39" stop-color="#6a8aff"/><stop offset="0.61" stop-color="#82a0ff"/><stop offset="0.85" stop-color="#a3beff"/><stop offset="1" stop-color="#bcd5ff"/></linearGradient><linearGradient id="_ÂÁ_Ï_ÌÌ_È_ËÂÌÚ_29-2" x1="-281.36" y1="212.62" x2="-17.35" y2="212.62" xlink:href="#_ÂÁ_Ï_ÌÌ_È_ËÂÌÚ_29"/><linearGradient id="_ÂÁ_Ï_ÌÌ_È_ËÂÌÚ_28-2" x1="-192.66" y1="203.82" x2="71.5" y2="203.82" xlink:href="#_ÂÁ_Ï_ÌÌ_È_ËÂÌÚ_28"/><linearGradient id="_ÂÁ_Ï_ÌÌ_È_ËÂÌÚ_28-3" x1="-147.92" y1="218.81" x2="-80.31" y2="218.81" xlink:href="#_ÂÁ_Ï_ÌÌ_È_ËÂÌÚ_28"/><clipPath id="clip-path"><polygon id="SVGID" class="cls-1" points="155.62 9.53 311.6 99.59 292.26 213.62 136.38 123.62 155.62 9.53"/></clipPath><linearGradient id="_ÂÁ_Ï_ÌÌ_È_ËÂÌÚ_28-4" x1="-293.58" y1="145.27" x2="-29.42" y2="145.27" xlink:href="#_ÂÁ_Ï_ÌÌ_È_ËÂÌÚ_28"/><linearGradient id="_ÂÁ_Ï_ÌÌ_È_ËÂÌÚ_28-5" x1="-310.96" y1="125.88" x2="-243.35" y2="125.88" xlink:href="#_ÂÁ_Ï_ÌÌ_È_ËÂÌÚ_28"/><radialGradient id="_ÂÁ_Ï_ÌÌ_È_ËÂÌÚ_36" cx="-204.42" cy="179.27" r="75.73" gradientTransform="matrix(-1, 0, 0, 1, 13.59, 0)" gradientUnits="userSpaceOnUse"><stop offset="0" stop-color="#2b3aa5"/><stop offset="1" stop-color="#182484"/></radialGradient><radialGradient id="_ÂÁ_Ï_ÌÌ_È_ËÂÌÚ_36-2" cx="-220.98" cy="145.2" r="57.96" xlink:href="#_ÂÁ_Ï_ÌÌ_È_ËÂÌÚ_36"/><linearGradient id="_ÂÁ_Ï_ÌÌ_È_ËÂÌÚ_35" x1="-241.85" y1="161.94" x2="-190.79" y2="70" gradientTransform="matrix(-1, 0, 0, 1, 13.59, 0)" gradientUnits="userSpaceOnUse"><stop offset="0" stop-color="#5778ff"/><stop offset="0.04" stop-color="#5c7dff"/><stop offset="0.09" stop-color="#6a8aff"/><stop offset="0.14" stop-color="#82a0ff"/><stop offset="0.19" stop-color="#a3beff"/><stop offset="0.22" stop-color="#bcd5ff"/></linearGradient><linearGradient id="_ÂÁ_Ï_ÌÌ_È_ËÂÌÚ_28-6" x1="-179.13" y1="162.26" x2="-213.11" y2="95.83" xlink:href="#_ÂÁ_Ï_ÌÌ_È_ËÂÌÚ_28"/><linearGradient id="_ÂÁ_Ï_ÌÌ_È_ËÂÌÚ_40" x1="-87.27" y1="281.69" x2="-195.28" y2="90.3" gradientTransform="matrix(-1, 0, 0, 1, 13.59, 0)" gradientUnits="userSpaceOnUse"><stop offset="0" stop-color="#c0d6ff"/><stop offset="0.08" stop-color="#c3d9ff"/><stop offset="0.13" stop-color="#cce2ff"/><stop offset="0.18" stop-color="#dcf2ff"/><stop offset="0.21" stop-color="#e9ffff"/><stop offset="0.26" stop-color="#d8eeff"/><stop offset="0.31" stop-color="#cbe1ff"/><stop offset="0.39" stop-color="#c2d8ff"/><stop offset="0.51" stop-color="#c0d6ff"/><stop offset="0.62" stop-color="#d0e6ff"/><stop offset="0.75" stop-color="#e9ffff"/><stop offset="1" stop-color="#c0d6ff"/></linearGradient></defs><title>Money</title><g id="Layer_2" data-name="Layer 2"><g id="_ÎÓÈ_1" data-name="—ÎÓÈ_1"><path class="cls-2" d="M279.89,248.32,128.38,160.84,6.84,231.4a2,2,0,0,0,0,3.41l39,22.49c-12.64,2.82-22.66,9.87-22.66,16.11,0,6.47,10.8,9.62,24.11,7,9.07-1.77,17-5.74,21.08-10.13l83.85,48.41a12.33,12.33,0,0,0,12.35,0l115.37-67A2,2,0,0,0,279.89,248.32Z"/><polygon class="cls-3" points="89.52 74.83 100.55 95.97 106.54 97.01 108.65 101.06 107.05 108.43 109.45 113.03 111.7 111.85 113.47 115.23 111.39 116.32 114.94 123.13 119.77 120.61 121.57 124.06 120.5 128.99 122.69 133.19 121.81 133.65 124.7 139.2 126.45 138.29 129.42 143.98 131.19 147.37 147.97 154.37 142.01 142.94 104.84 71.71 89.52 74.83"/><path class="cls-3" d="M105.61,41.49l-.26-.43c-.16-.28-.33-.55-.49-.81l-.34-.53-.45-.67-.4-.56-.43-.59-.44-.58-.41-.51-.49-.6-.39-.44c-.18-.21-.36-.42-.55-.62l-.34-.36-.63-.65-.26-.25-.73-.7-.09-.08C90.6,25.53,79.4,23.05,70.33,27.78c-12.22,6.38-15.93,23.44-8.28,38.1a32.66,32.66,0,0,0,18,16.05h0A24.73,24.73,0,0,0,88,83.29h.1l.89,0h.32l.78-.06.43,0c.24,0,.47-.05.71-.09l.49-.07.65-.12.55-.12.6-.14.6-.17.55-.16.64-.22.49-.17.73-.31.39-.16c.37-.17.74-.34,1.11-.53,12.22-6.38,15.93-23.44,8.28-38.1C106.09,42.35,105.85,41.92,105.61,41.49Zm-21.86,12c-3.57,1.87-8.29-.1-10.53-4.39A10.43,10.43,0,0,1,72.74,48l-.09-.25a11.12,11.12,0,0,1-.33-1.08,8.42,8.42,0,0,1,1.16-6.86h0a6.43,6.43,0,0,1,1-1.05l.07-.06a4.3,4.3,0,0,1,.49-.38,6,6,0,0,1,.64-.38c3.57-1.87,8.28.1,10.52,4.39S87.33,51.64,83.75,53.5Z"/><polygon class="cls-4" points="92.97 73.03 104 94.16 110 95.21 112.11 99.25 110.5 106.63 112.91 111.23 115.16 110.05 116.92 113.43 114.84 114.52 118.4 121.33 123.23 118.81 125.02 122.25 123.95 127.18 126.15 131.39 125.27 131.85 128.16 137.4 129.91 136.48 132.88 142.18 134.65 145.57 151.43 152.56 145.46 141.14 108.3 69.91 92.97 73.03"/><path class="cls-3" d="M76.23,24.7C64,31.08,60.3,48.14,68,62.8s23.76,21.38,36,15,15.93-23.44,8.28-38.1S88.46,18.32,76.23,24.7ZM89.65,50.42c-3.57,1.87-8.29-.1-10.52-4.39S78,36.75,81.55,34.89s8.29.1,10.53,4.39S93.23,48.56,89.65,50.42Z"/><polygon class="cls-5" points="142.54 143.96 138.43 142.3 105.99 80.15 108.55 78.81 142.54 143.96"/><polygon class="cls-3" points="108.55 78.81 142.54 143.96 144 144.55 109.45 78.34 108.55 78.81"/><path class="cls-5" d="M108.3,69.91,93,73l5,9.47a18.12,18.12,0,0,0,10.83-1.84A17.43,17.43,0,0,0,112.52,78Z"/><path class="cls-5" d="M97.68,25.11,86,78.85a22.64,22.64,0,0,0,17.94-1c12.23-6.38,15.93-23.44,8.28-38.1A33.49,33.49,0,0,0,97.68,25.11Z"/><path class="cls-6" d="M77.07,26.3c-11.49,6-15,22-7.78,35.81s22.33,20.09,33.82,14.1,15-22,7.78-35.81S88.55,20.31,77.07,26.3ZM89.65,50.42c-3.57,1.87-8.29-.1-10.52-4.39S78,36.75,81.55,34.89s8.29.1,10.53,4.39S93.23,48.56,89.65,50.42Z"/><path class="cls-4" d="M78.54,29.12c-10.19,5.32-13.28,19.54-6.9,31.76s19.81,17.82,30,12.51,13.27-19.54,6.9-31.76S88.73,23.8,78.54,29.12Zm11.11,21.3c-3.57,1.87-8.29-.1-10.52-4.39S78,36.75,81.55,34.89s8.29.1,10.53,4.39S93.23,48.56,89.65,50.42Z"/><path class="cls-3" d="M78.54,29.12c-.4.21-.78.43-1.15.66,10-4.3,22.66,1.33,28.79,13.07s3.51,25.34-5.75,31.1c.41-.17.81-.36,1.21-.56,10.18-5.32,13.27-19.54,6.9-31.76S88.73,23.8,78.54,29.12Z"/><path class="cls-5" d="M74.56,61.7c-6.38-12.22-3.29-26.44,6.9-31.76a18.48,18.48,0,0,1,12.38-1.58,19,19,0,0,0-15.3.76c-10.19,5.32-13.28,19.54-6.9,31.76,4,7.61,10.67,12.64,17.62,14.09A27.32,27.32,0,0,1,74.56,61.7Z"/><path class="cls-5" d="M82.53,33.73a7.92,7.92,0,0,0-3.15,3,6.23,6.23,0,0,1,2.17-1.87c3.57-1.87,8.29.1,10.53,4.39s1.15,9.28-2.43,11.14-8.29-.1-10.52-4.39a10.43,10.43,0,0,1-.91-2.41,12.94,12.94,0,0,0,1.3,3.94c2.78,5.32,8.63,7.76,13.07,5.44s5.78-8.5,3-13.83S87,31.41,82.53,33.73Z"/><path class="cls-6" d="M80.57,33c-4.43,2.31-5.78,8.5-3,13.83s8.62,7.76,13.06,5.44,5.78-8.5,3-13.83S85,30.7,80.57,33Zm9.08,17.4c-3.57,1.87-8.29-.1-10.52-4.39S78,36.75,81.55,34.89s8.29.1,10.53,4.39S93.23,48.56,89.65,50.42Z"/><path class="cls-3" d="M79.4,33.63c-4.44,2.32-5.79,8.51-3,13.83S85,55.22,89.45,52.91s5.79-8.51,3-13.83S83.83,31.32,79.4,33.63ZM88.48,51c-3.58,1.86-8.29-.1-10.53-4.39S76.8,37.37,80.37,35.5s8.29.1,10.53,4.39S92.05,49.17,88.48,51Z"/><path class="cls-6" d="M80.57,33c-4.43,2.31-5.78,8.5-3,13.83s8.62,7.76,13.06,5.44,5.78-8.5,3-13.83S85,30.7,80.57,33Zm9.08,17.4c-3.57,1.87-8.29-.1-10.52-4.39S78,36.75,81.55,34.89s8.29.1,10.53,4.39S93.23,48.56,89.65,50.42Z"/><polygon class="cls-5" points="149.93 151.94 110.53 76.44 112.52 78 151.43 152.56 149.93 151.94"/><rect class="cls-3" x="108.03" y="107.23" width="3.9" height="5.19" transform="matrix(0.89, -0.46, 0.46, 0.89, -38.33, 63.33)"/><polygon class="cls-5" points="119.77 120.61 125.02 122.25 123.23 118.81 119.77 120.61"/><polygon class="cls-5" points="111.7 111.85 115.16 110.05 116.92 113.43 111.7 111.85"/><polygon class="cls-5" points="100.55 95.97 104 94.16 110 95.21 106.54 97.01 100.55 95.97"/><path class="cls-5" d="M94.46,84.3l3.46-1.8L97,78.87l-5,.83-5.6-2.48-7.87,4.11c.54.22,1.07.42,1.61.6h0A24.73,24.73,0,0,0,88,83.29h.1l.89,0h.32l.78-.06.43,0c.24,0,.47-.05.71-.09l.49-.07.65-.12.55-.12.6-.14h0Z"/><polygon class="cls-5" points="151.43 152.56 147.97 154.37 131.19 147.37 134.65 145.57 151.43 152.56"/><polygon class="cls-5" points="126.45 138.29 129.91 136.48 131.56 139.65 126.45 138.29"/><path class="cls-3" d="M76.23,24.7l-6.09,3.18s3.25-.54,3.29-.56S76.23,24.7,76.23,24.7Z"/><path class="cls-2" d="M29.31,147.18c-.49,0-1,0-1.48.09l-.51,0-.95.09-.62.07-.81.1-.67.1-.73.11-.71.13-.65.12-.76.15-.57.13-.8.18-.48.12-.85.23-.35.1-1,.28-.1,0C6.81,152.55-.33,159.3,0,166.75c.46,10,14.33,17.56,31,16.8,9.07-.42,17.09-3.21,22.44-7.29h0a20.44,20.44,0,0,0,4.68-4.88.43.43,0,0,0,0-.07c.13-.19.25-.39.37-.6l.13-.21c.1-.18.19-.36.28-.54s.11-.2.15-.3,0-.1.08-.14l16-.74,3.56-3.69,4.59-.21,6,3.25,5.23-.24h0L94.44,166l3.84-.18.08,1.71h0l7.73-.35h0l-.19-4,3.92-.18,4,2.17,4.78-.22,0,.73h0l6.3-.29h0l-.07-1.43,6.46-.3,3.85-.18,13.66-9.12-13,.59-71.66,3.29h0l-5.57.26C54.45,151.38,42.8,146.56,29.31,147.18Zm-.1,18.23c.13,2.93-3.71,5.5-8.58,5.72-.27,0-.53,0-.8,0h-.26l-.54,0-.28,0c-2.86-.24-5.25-1.33-6.42-2.88h0a3.89,3.89,0,0,1-.53-1l0-.08a3.06,3.06,0,0,1-.13-.43,4.81,4.81,0,0,1-.07-.53c-.13-2.94,3.71-5.51,8.58-5.73S29.07,162.47,29.21,165.41Z"/><path class="cls-7" d="M133.1,122.42,153.35,2.29l-1.63-.69L154.17.2v0a1.75,1.75,0,0,1,1.89.13L317.87,93.77a4.6,4.6,0,0,1,2.1,4.11L299.56,219a1.55,1.55,0,0,1-.85,1.24h0l-2.4,1.38-.41-2.24.14,0L135.2,126.53A4.58,4.58,0,0,1,133.1,122.42Z"/><path class="cls-8" d="M317,97.06l2.66-1.18a3.68,3.68,0,0,1,.35,2L299.56,219a1.55,1.55,0,0,1-.85,1.24h0l-2.4,1.38-.41-2.24.14,0-8.14-4.7Z"/><path class="cls-9" d="M132.66,128l161.82,93.43c1.25.72,2.32.3,2.54-1L317.43,99.34a4.57,4.57,0,0,0-2.1-4.11L153.51,1.8c-1.25-.72-2.32-.3-2.54,1L130.56,123.87A4.56,4.56,0,0,0,132.66,128Z"/><g class="cls-10"><polygon class="cls-11" points="155.62 9.53 311.6 99.59 292.26 213.62 136.38 123.62 155.62 9.53"/></g><path class="cls-12" d="M30.94,185.31l8.83,4.61,88.55-51.13a6.46,6.46,0,0,1,5.78.24l152.73,88.18c1.46-.82,8.13-4,8.13-4l-3.24,8.42h0a1.93,1.93,0,0,1-.9,1l-93.27,53.85a6.47,6.47,0,0,1-5.78-.24L35.48,196a2.83,2.83,0,0,1-1.31-1.4h0Z"/><path class="cls-13" d="M32.31,186.76l160.17,92.47a6.54,6.54,0,0,0,5.92.25L294,224.3c1.51-.88,1.32-2.41-.43-3.42L133.39,128.4a6.63,6.63,0,0,0-5.93-.25L31.88,183.34C30.36,184.21,30.56,185.75,32.31,186.76Z"/><path class="cls-14" d="M240.79,259.23v-1.76c0-.16-.1-.24-.22-.17l-6.2,3.58a.54.54,0,0,0-.22.43v1.76c0,.16.1.24.22.17l6.2-3.58A.54.54,0,0,0,240.79,259.23Z"/><path class="cls-14" d="M231.53,264.58v-1.76c0-.16-.1-.24-.23-.17l-6.19,3.58a.52.52,0,0,0-.23.43v1.76c0,.16.1.24.23.17L231.3,265A.52.52,0,0,0,231.53,264.58Z"/><path class="cls-15" d="M269.07,219.13,136,142.28a2.86,2.86,0,0,0-2.86,0L85.7,169.7a1,1,0,0,0,0,1.77l133,76.82a2.86,2.86,0,0,0,2.86,0l47.47-27.39A1,1,0,0,0,269.07,219.13Z"/><path class="cls-16" d="M269.07,220.9l-.48.27L136,144.6a2.86,2.86,0,0,0-2.86,0L86.17,171.75l-.47-.28a1,1,0,0,1,0-1.77l47.4-27.42a2.86,2.86,0,0,1,2.86,0l133.11,76.85A1,1,0,0,1,269.07,220.9Z"/><polygon class="cls-9" points="129.52 149.23 245.14 215.98 250.28 213.01 134.66 146.26 129.52 149.23"/><polygon class="cls-9" points="116.92 156.5 225.36 219.12 230.5 216.15 122.06 153.53 116.92 156.5"/><polygon class="cls-9" points="108.71 161.24 236.39 234.96 241.53 231.99 113.85 158.27 108.71 161.24"/><polygon class="cls-9" points="100.5 165.98 228.18 239.7 233.32 236.73 105.64 163.01 100.5 165.98"/><polygon class="cls-9" points="92.29 170.72 219.97 244.44 225.11 241.47 97.43 167.75 92.29 170.72"/><polygon class="cls-9" points="252.12 220.01 257.26 222.98 262.4 220.01 257.26 217.04 252.12 220.01"/><polygon class="cls-9" points="233.99 224.1 244.66 230.26 249.8 227.29 239.13 221.13 233.99 224.1"/><path class="cls-17" d="M130.84,237.72,95,217c-1.4-.81-1.4-2.12,0-2.93l24.54-14.17a5.61,5.61,0,0,1,5.08,0l35.89,20.72c1.4.81,1.4,2.12,0,2.93l-24.54,14.17A5.61,5.61,0,0,1,130.84,237.72Z"/><path class="cls-16" d="M160.46,221.82,124.57,201.1a5.61,5.61,0,0,0-5.08,0L95,215.27a2.16,2.16,0,0,0-.88.87c-.37-.71-.09-1.51.88-2.07l24.54-14.17a5.61,5.61,0,0,1,5.08,0l35.89,20.72c1,.56,1.25,1.36.88,2.07A2.16,2.16,0,0,0,160.46,221.82Z"/><g class="cls-18"><g class="cls-19"><path class="cls-20" d="M133.23,128.21,293.4,220.69a6.59,6.59,0,0,0,5.93.24l95.58-55.18c1.52-.88,1.33-2.41-.43-3.42L234.31,69.85a6.57,6.57,0,0,0-5.92-.24L132.8,124.79C131.29,125.67,131.48,127.2,133.23,128.21Z"/><path class="cls-21" d="M293.88,144.79,258,124.07c-1.4-.81-1.4-2.12,0-2.93L282.53,107a5.61,5.61,0,0,1,5.08,0l35.89,20.72c1.4.81,1.4,2.12,0,2.93L299,144.79A5.61,5.61,0,0,1,293.88,144.79Z"/><path class="cls-16" d="M323.5,128.89l-35.89-20.72a5.61,5.61,0,0,0-5.08,0L258,122.34a2.2,2.2,0,0,0-.88.86c-.37-.71-.09-1.5.88-2.06L282.53,107a5.61,5.61,0,0,1,5.08,0l35.89,20.72c1,.56,1.25,1.35.88,2.06A2.2,2.2,0,0,0,323.5,128.89Z"/><path class="cls-15" d="M339.28,177.17,206.17,100.32a2.86,2.86,0,0,0-2.86,0l-47.4,27.43a1,1,0,0,0,0,1.77l133,76.81a2.88,2.88,0,0,0,2.87,0l47.46-27.39A1,1,0,0,0,339.28,177.17Z"/><path class="cls-16" d="M339.28,178.94l-.48.28L206.17,102.64a2.84,2.84,0,0,0-2.86,0l-46.92,27.14-.48-.27a1,1,0,0,1,0-1.77l47.4-27.43a2.86,2.86,0,0,1,2.86,0l133.11,76.85A1,1,0,0,1,339.28,178.94Z"/><polygon class="cls-9" points="168.31 125.88 284.27 192.82 279.68 195.48 163.72 128.53 168.31 125.88"/><polygon class="cls-9" points="180.53 118.82 290.75 182.46 286.15 185.11 175.94 121.48 180.53 118.82"/><polygon class="cls-9" points="298.98 187.21 309.27 193.15 304.68 195.8 294.38 189.86 298.98 187.21"/><polygon class="cls-9" points="289.88 196.07 297.05 200.21 292.46 202.86 285.29 198.72 289.88 196.07"/><polygon class="cls-9" points="188.19 114.4 316.93 188.73 312.33 191.38 183.59 117.06 188.19 114.4"/><polygon class="cls-9" points="195.84 109.98 324.58 184.31 319.99 186.96 191.25 112.64 195.84 109.98"/><polygon class="cls-9" points="203.5 105.56 332.24 179.89 327.64 182.54 198.9 108.22 203.5 105.56"/></g></g><polygon class="cls-22" points="207.39 212.28 241.9 191.05 164.32 146.26 127.7 170.87 207.39 212.28"/><polygon class="cls-23" points="241.9 191.05 249.8 141.12 177 99.36 177 153.48 241.9 191.05"/><path class="cls-24" d="M169.38,75.1l7.7-4.43h0a.37.37,0,0,1,.39,0L274,126.41a1.38,1.38,0,0,1,.57,1.09v18.22a.54.54,0,0,1-.16.43h0l0,0-7.78,4.48-.06-8.8-89-51.42a1.35,1.35,0,0,1-.57-1.09V83.09Z"/><path class="cls-25" d="M169.72,94.89l96.51,55.72c.32.18.58,0,.58-.43V132a1.36,1.36,0,0,0-.58-1.09L169.72,75.15c-.31-.19-.57,0-.57.43V93.8A1.39,1.39,0,0,0,169.72,94.89Z"/><path class="cls-26" d="M183,91.2l75.14,44.18a52.17,52.17,0,0,0-6.54,6.8l-75.7-43.7A50.55,50.55,0,0,1,183,91.2Z"/><path class="cls-9" d="M172.48,89.41l91,52.55c.22.12.39,0,.39-.3v-4.58a.92.92,0,0,0-.39-.74l-91-52.54c-.22-.13-.39,0-.39.29v4.58A.9.9,0,0,0,172.48,89.41Z"/><path class="cls-11" d="M172.48,83.8l1.85,1.07v2.47a.92.92,0,0,0,.39.74l89.15,51.47v2.11c0,.29-.17.42-.39.3l-91-52.55a.9.9,0,0,1-.39-.74V84.09C172.09,83.81,172.26,83.67,172.48,83.8Z"/><path class="cls-27" d="M121.35,286.55l-75.7-43.71h0c9.76-5.64,18-18,20.51-29.78a17.25,17.25,0,0,1,8.18-11.39l57.21-33a54.78,54.78,0,0,0,27.35-44.13c.91-15.51,12.64-30.76,21.74-36h0l75.7,43.71h0c-9,5.17-18.83,19.64-19.95,34.88a55.45,55.45,0,0,1-27.3,44.2l-59,34.08a17.21,17.21,0,0,0-8.18,11.39c-2.52,11.8-10.75,24.14-20.52,29.78Z"/><path class="cls-28" d="M180.64,88.51l75.7,43.71c-.6.35-1.2.73-1.8,1.12h0l-75.7-43.71C179.43,89.24,180,88.86,180.64,88.51Z"/><g class="cls-29"><polygon class="cls-11" points="209.1 140.21 222.38 147.9 222.49 146.37 209.24 138.71 209.1 140.21"/><polygon class="cls-11" points="202.41 136.33 207.1 139.05 207.24 137.55 202.55 134.84 202.41 136.33"/><polygon class="cls-11" points="197.28 133.35 200.43 135.18 200.58 133.7 197.43 131.88 197.28 133.35"/><polygon class="cls-11" points="214.83 147.17 222.13 151.42 222.24 149.88 214.96 145.64 214.83 147.17"/><polygon class="cls-11" points="204.01 140.86 212.8 145.98 212.93 144.46 204.15 139.36 204.01 140.86"/><polygon class="cls-11" points="198.84 137.85 202.02 139.7 202.16 138.2 198.99 136.36 198.84 137.85"/><polygon class="cls-11" points="193.96 135 197.11 136.84 197.26 135.35 194.12 133.53 193.96 135"/><polygon class="cls-11" points="216.57 151.86 221.88 154.97 222 153.41 216.69 150.31 216.57 151.86"/><polygon class="cls-11" points="212.73 149.6 214.53 150.66 214.65 149.12 212.85 148.07 212.73 149.6"/><polygon class="cls-11" points="207.46 146.52 210.7 148.41 210.82 146.88 207.59 144.99 207.46 146.52"/><polygon class="cls-11" points="202.18 147.09 221.63 158.55 221.74 156.98 202.33 145.57 202.18 147.09"/><polygon class="cls-11" points="195.48 143.15 200.18 145.91 200.33 144.39 195.64 141.64 195.48 143.15"/><polygon class="cls-11" points="216.03 158.99 221.38 162.16 221.49 160.57 216.15 157.42 216.03 158.99"/><polygon class="cls-11" points="203.65 151.66 213.96 157.77 214.09 156.2 203.79 150.12 203.65 151.66"/><polygon class="cls-11" points="198.41 148.56 201.63 150.46 201.77 148.93 198.56 147.03 198.41 148.56"/><polygon class="cls-11" points="210.18 159.28 221.13 165.8 221.24 164.2 210.31 157.71 210.18 159.28"/><polygon class="cls-11" points="200.36 153.44 208.13 158.06 208.26 156.49 200.51 151.89 200.36 153.44"/><polygon class="cls-11" points="193.17 149.16 198.34 152.23 198.49 150.69 193.33 147.63 193.17 149.16"/><polygon class="cls-11" points="217.13 167.23 220.87 169.47 220.98 167.86 217.25 165.63 217.13 167.23"/><polygon class="cls-11" points="210.16 163.06 215.05 165.99 215.17 164.39 210.29 161.48 210.16 163.06"/><polygon class="cls-11" points="200.34 157.19 208.1 161.83 208.24 160.25 200.49 155.63 200.34 157.19"/><polygon class="cls-11" points="209.19 166.3 220.61 173.17 220.72 171.55 209.32 164.71 209.19 166.3"/><polygon class="cls-11" points="196.66 158.76 207.12 165.06 207.26 163.47 196.82 157.2 196.66 158.76"/><polygon class="cls-11" points="191.42 155.6 194.64 157.55 194.8 155.99 191.58 154.05 191.42 155.6"/><polygon class="cls-11" points="186.43 152.6 189.62 154.53 189.79 152.98 186.6 151.06 186.43 152.6"/><polygon class="cls-11" points="213.45 172.74 220.34 176.91 220.46 175.27 213.58 171.12 213.45 172.74"/><polygon class="cls-11" points="183.07 125.12 174.44 120.11 174.62 118.69 183.25 123.68 183.07 125.12"/><polygon class="cls-11" points="180.8 127.34 174 123.38 174.19 121.94 180.98 125.89 180.8 127.34"/><polygon class="cls-11" points="178.5 129.55 173.57 126.67 173.76 125.22 178.68 128.1 178.5 129.55"/><polygon class="cls-11" points="180.34 134.23 173.13 129.98 173.32 128.53 180.52 132.76 180.34 134.23"/><polygon class="cls-11" points="177.66 136.27 172.69 133.32 172.88 131.86 177.84 134.79 177.66 136.27"/><polygon class="cls-11" points="178.57 140.47 172.24 136.7 172.44 135.22 178.76 138.97 178.57 140.47"/><polygon class="cls-11" points="175.25 142.16 171.79 140.09 171.99 138.6 175.44 140.66 175.25 142.16"/><polygon class="cls-11" points="178.08 147.58 171.34 143.52 171.54 142.02 178.26 146.06 178.08 147.58"/><polygon class="cls-11" points="177.29 150.85 170.88 146.98 171.08 145.46 177.48 149.32 177.29 150.85"/><polygon class="cls-11" points="208.46 169.72 211.36 171.47 211.49 169.86 208.6 168.11 208.46 169.72"/><polygon class="cls-11" points="199.94 164.56 206.39 168.46 206.53 166.86 200.09 162.97 199.94 164.56"/></g><g class="cls-29"><polygon class="cls-11" points="160.22 190.34 140.48 178.94 141.89 178.13 161.63 189.52 160.22 190.34"/><polygon class="cls-11" points="171.69 196.96 164.57 192.85 165.98 192.04 173.1 196.15 171.69 196.96"/><polygon class="cls-11" points="177.41 200.26 175.32 199.06 176.73 198.24 178.82 199.45 177.41 200.26"/><polygon class="cls-11" points="188.16 206.47 181.04 202.36 182.45 201.54 189.57 205.66 188.16 206.47"/><polygon class="cls-11" points="143.33 183.95 137.56 180.62 138.97 179.81 144.74 183.14 143.33 183.95"/><polygon class="cls-11" points="168.78 198.65 147.68 186.47 149.09 185.65 170.19 197.83 168.78 198.65"/><polygon class="cls-11" points="174.49 201.95 172.41 200.74 173.82 199.93 175.9 201.13 174.49 201.95"/><polygon class="cls-11" points="185.25 208.15 178.12 204.04 179.53 203.23 186.66 207.34 185.25 208.15"/><polygon class="cls-11" points="137.53 183.97 134.64 182.31 136.05 181.49 138.94 183.16 137.53 183.97"/><polygon class="cls-11" points="145.3 188.46 141.88 186.49 143.29 185.67 146.71 187.65 145.3 188.46"/><polygon class="cls-11" points="151.02 191.76 148.93 190.56 150.34 189.74 152.43 190.95 151.02 191.76"/><polygon class="cls-11" points="161.77 197.97 154.65 193.85 156.06 193.04 163.18 197.15 161.77 197.97"/><polygon class="cls-11" points="137.49 187.32 131.73 183.99 133.14 183.18 138.9 186.51 137.49 187.32"/><polygon class="cls-11" points="148.97 193.95 141.85 189.84 143.26 189.02 150.38 193.13 148.97 193.95"/><polygon class="cls-11" points="154.69 197.25 152.6 196.04 154.01 195.23 156.1 196.43 154.69 197.25"/><polygon class="cls-11" points="165.44 203.46 158.32 199.34 159.73 198.53 166.85 202.64 165.44 203.46"/><polygon class="cls-11" points="148.33 197.2 128.59 185.8 130 184.99 149.74 196.38 148.33 197.2"/><polygon class="cls-11" points="159.81 203.82 152.69 199.71 154.09 198.9 161.22 203.01 159.81 203.82"/><polygon class="cls-11" points="165.53 207.13 163.44 205.92 164.85 205.11 166.93 206.31 165.53 207.13"/><polygon class="cls-11" points="176.28 213.33 169.15 209.22 170.56 208.41 177.69 212.52 176.28 213.33"/><polygon class="cls-11" points="131.44 190.82 125.67 187.49 127.08 186.67 132.85 190 131.44 190.82"/><polygon class="cls-11" points="156.89 205.51 135.79 193.33 137.21 192.52 158.3 204.7 156.89 205.51"/><polygon class="cls-11" points="162.61 208.81 160.52 207.6 161.93 206.79 164.02 208 162.61 208.81"/><polygon class="cls-11" points="173.36 215.02 166.24 210.9 167.65 210.09 174.77 214.2 173.36 215.02"/><polygon class="cls-11" points="125.64 190.84 122.76 189.17 124.17 188.36 127.05 190.02 125.64 190.84"/><polygon class="cls-11" points="133.41 195.32 130 193.35 131.4 192.53 134.82 194.51 133.41 195.32"/><polygon class="cls-11" points="139.13 198.62 137.04 197.42 138.45 196.6 140.54 197.81 139.13 198.62"/><polygon class="cls-11" points="149.88 204.83 142.76 200.72 144.17 199.9 151.29 204.02 149.88 204.83"/><polygon class="cls-11" points="125.61 194.18 119.84 190.85 121.25 190.04 127.02 193.37 125.61 194.18"/><polygon class="cls-11" points="137.09 200.81 129.96 196.7 131.37 195.88 138.5 200 137.09 200.81"/><polygon class="cls-11" points="142.8 204.11 140.71 202.91 142.12 202.09 144.21 203.3 142.8 204.11"/><polygon class="cls-11" points="153.55 210.32 146.43 206.21 147.84 205.39 154.96 209.5 153.55 210.32"/><polygon class="cls-11" points="136.44 204.06 116.7 192.66 118.11 191.85 137.85 203.25 136.44 204.06"/><polygon class="cls-11" points="147.92 210.69 140.8 206.57 142.21 205.76 149.33 209.87 147.92 210.69"/><polygon class="cls-11" points="153.64 213.99 151.55 212.78 152.96 211.97 155.05 213.17 153.64 213.99"/><polygon class="cls-11" points="164.39 220.2 157.27 216.08 158.68 215.27 165.8 219.38 164.39 220.2"/><polygon class="cls-11" points="119.56 197.68 113.79 194.35 115.2 193.53 120.97 196.87 119.56 197.68"/><polygon class="cls-11" points="145 212.37 123.91 200.19 125.32 199.38 146.41 211.56 145 212.37"/><polygon class="cls-11" points="150.72 215.67 148.63 214.47 150.04 213.65 152.13 214.86 150.72 215.67"/><polygon class="cls-11" points="161.47 221.88 154.35 217.77 155.76 216.95 162.88 221.07 161.47 221.88"/><polygon class="cls-11" points="113.75 197.7 110.87 196.03 112.28 195.22 115.16 196.88 113.75 197.7"/><polygon class="cls-11" points="121.53 202.19 118.11 200.21 119.52 199.4 122.94 201.37 121.53 202.19"/><polygon class="cls-11" points="127.24 205.49 125.16 204.28 126.56 203.47 128.65 204.67 127.24 205.49"/><polygon class="cls-11" points="138 211.69 130.87 207.58 132.28 206.77 139.41 210.88 138 211.69"/><polygon class="cls-11" points="113.72 201.05 107.95 197.72 109.36 196.9 115.13 200.23 113.72 201.05"/><polygon class="cls-11" points="125.2 207.67 118.08 203.56 119.48 202.75 126.61 206.86 125.2 207.67"/><polygon class="cls-11" points="130.91 210.97 128.83 209.77 130.24 208.95 132.32 210.16 130.91 210.97"/><polygon class="cls-11" points="141.67 217.18 134.54 213.07 135.95 212.25 143.08 216.37 141.67 217.18"/></g><path class="cls-30" d="M84.44,182.93c-5,2.88-13.09,2.88-18.09,0s-5-7.56,0-10.44,13.09-2.89,18.09,0S89.43,180,84.44,182.93Z"/><polygon class="cls-5" points="61.95 164.54 59.28 158.2 60.34 158.05 61.76 159.62 61.95 164.54"/><path class="cls-3" d="M104.65,146.29,102,140s-.82,7.12-.78,7.2S104.65,146.29,104.65,146.29Z"/><ellipse class="cls-3" cx="80.68" cy="149.19" rx="23.22" ry="19.23" transform="translate(-51.58 43) rotate(-22.84)"/><ellipse class="cls-3" cx="83.35" cy="155.53" rx="23.22" ry="19.23" transform="translate(-53.83 44.53) rotate(-22.83)"/><path class="cls-5" d="M62.86,149.53a17.65,17.65,0,0,0-.91,15c4.12,9.79,17,13.7,28.86,8.72a25.8,25.8,0,0,0,12.86-11.41Z"/><ellipse class="cls-6" cx="83.35" cy="155.53" rx="22.18" ry="18.38" transform="translate(-53.83 44.53) rotate(-22.83)"/><path class="cls-4" d="M89.07,169.13C80,173,70.1,170,66.93,162.44s1.63-16.69,10.69-20.5,19-.83,22.14,6.68S98.13,165.31,89.07,169.13Z"/><path class="cls-3" d="M99.76,148.62c-.13-.31-.28-.61-.43-.9,2.4,7.31-2.35,15.9-11,19.56s-18.15,1.06-21.7-5.78c.1.32.21.63.34.94C70.1,170,80,173,89.07,169.13S102.92,156.13,99.76,148.62Z"/><path class="cls-3" d="M87,155.27l-4.63-1.4c-2.91,2.12-8.31,6.07-12.61,9.27A14.52,14.52,0,0,0,81,167.19Z"/><path class="cls-3" d="M85.67,166.34c.55-.17,1.11-.38,1.66-.61A17.82,17.82,0,0,0,96.1,158l-7.57-2.29Z"/><path class="cls-3" d="M77.36,152.37l-8.74-2.64c-1.33,2.67-2.36,5.42-1.72,8.2Z"/><path class="cls-5" d="M77.5,143.93c9.06-3.82,19-.83,22.13,6.68a12.48,12.48,0,0,1,1,4.71,12.74,12.74,0,0,0-.84-6.7c-3.16-7.51-13.08-10.5-22.14-6.68-7.23,3-11.73,9.49-11.65,15.79C66.74,152.1,71,146.65,77.5,143.93Z"/><path class="cls-5" d="M59.28,158.2a16.07,16.07,0,0,0,2.39,4c-.17-1.63-.44-4.06-.44-4.06l.09-4.1.87-1.64,1.58-2.57-3.13-7.44C57.8,147.36,57.12,153.08,59.28,158.2Z"/><rect class="cls-5" x="100.41" y="137.75" width="0.66" height="4.39" rx="0.28" transform="translate(-46.41 50.06) rotate(-22.83)"/><rect class="cls-5" x="96.64" y="133.85" width="0.85" height="5.34" rx="0.32" transform="translate(-45.37 48.37) rotate(-22.84)"/><rect class="cls-5" x="92.56" y="131.64" width="1.09" height="5.37" rx="0.37" transform="translate(-44.83 46.66) rotate(-22.83)"/><rect class="cls-5" x="87.4" y="130.29" width="1.09" height="5.77" rx="0.37" transform="translate(-44.79 44.57) rotate(-22.83)"/><rect class="cls-5" x="82.65" y="129.92" width="1.09" height="6.12" rx="0.37" transform="translate(-45.09 42.71) rotate(-22.83)"/><rect class="cls-5" x="78.28" y="130.69" width="1.09" height="6.02" rx="0.37" transform="translate(-45.71 41.07) rotate(-22.83)"/><rect class="cls-5" x="74.19" y="132.04" width="1.09" height="6.06" rx="0.37" transform="translate(-46.56 39.59) rotate(-22.83)"/><rect class="cls-5" x="70.32" y="134.04" width="1.09" height="5.89" rx="0.37" transform="translate(-47.61 38.24) rotate(-22.83)"/><rect class="cls-5" x="66.75" y="136.69" width="1.09" height="5.82" rx="0.37" transform="translate(-48.9 37.05) rotate(-22.84)"/><rect class="cls-5" x="63.55" y="140.09" width="1.09" height="6.01" rx="0.37" transform="translate(-50.51 36.09) rotate(-22.83)"/><polygon class="cls-5" points="62.34 237.61 55.55 238.74 55.65 237.67 57.51 236.65 62.34 237.61"/><path class="cls-3" d="M54.47,191.84,47.76,193s6.74,2.44,6.82,2.42S54.47,191.84,54.47,191.84Z"/><ellipse class="cls-3" cx="51.74" cy="215.83" rx="19.23" ry="23.22" transform="translate(-34.71 11.42) rotate(-9.44)"/><ellipse class="cls-3" cx="58.53" cy="214.7" rx="19.23" ry="23.22" transform="translate(-34.43 12.51) rotate(-9.44)"/><path class="cls-5" d="M47.94,233.24a17.67,17.67,0,0,0,14.4,4.37c10.48-1.74,17.27-13.41,15.16-26.06a25.74,25.74,0,0,0-8.12-15.15Z"/><ellipse class="cls-6" cx="58.53" cy="214.7" rx="18.38" ry="22.18" transform="translate(-34.43 12.51) rotate(-9.44)"/><path class="cls-4" d="M73.08,212.28c1.62,9.71-3.59,18.65-11.63,20S45.59,226.83,44,217.13s3.59-18.65,11.63-20S71.47,202.58,73.08,212.28Z"/><path class="cls-3" d="M55.61,197.14c-.33.05-.66.13-1,.21,7.67-.65,14.93,6,16.47,15.26s-3.17,17.91-10.65,19.78c.34,0,.67-.06,1-.12,8-1.34,13.25-10.28,11.63-20S63.65,195.8,55.61,197.14Z"/><path class="cls-3" d="M59.12,211.11l-2.44,4.19c1.39,3.31,4,9.49,6.09,14.41a14.48,14.48,0,0,0,6.56-10Z"/><path class="cls-3" d="M69.58,215c0-.58-.11-1.17-.21-1.76a17.71,17.71,0,0,0-5.46-10.31l-4,6.83Z"/><path class="cls-3" d="M54.06,219.79l-4.59,7.89c2.3,1.92,4.74,3.55,7.58,3.57Z"/><path class="cls-5" d="M45.88,217.71c-1.61-9.7,3.6-18.65,11.63-20a12.53,12.53,0,0,1,4.81.15,12.65,12.65,0,0,0-6.71-.73c-8,1.34-13.24,10.28-11.63,20,1.29,7.73,6.52,13.6,12.66,15C51.35,230.06,47,224.63,45.88,217.71Z"/><path class="cls-5" d="M55.55,238.74A16.21,16.21,0,0,0,60,237.32l-4.06-.51-4-1-1.39-1.23-2.14-2.13-8,1.33C44.67,237.66,50.07,239.65,55.55,238.74Z"/><rect class="cls-5" x="45.2" y="193.85" width="4.39" height="0.66" rx="0.28" transform="translate(-31.22 10.41) rotate(-9.44)"/><rect class="cls-5" x="40.54" y="196.52" width="5.34" height="0.85" rx="0.32" transform="matrix(0.99, -0.16, 0.16, 0.99, -31.73, 9.76)"/><rect class="cls-5" x="37.47" y="199.75" width="5.37" height="1.09" rx="0.37" transform="translate(-32.32 9.3) rotate(-9.44)"/><rect class="cls-5" x="34.96" y="204.5" width="5.77" height="1.09" rx="0.37" transform="matrix(0.99, -0.16, 0.16, 0.99, -33.13, 8.99)"/><rect class="cls-5" x="33.5" y="209.08" width="6.12" height="1.09" rx="0.37" transform="translate(-33.9 8.84) rotate(-9.44)"/><rect class="cls-5" x="33.23" y="213.5" width="6.02" height="1.09" rx="0.37" transform="translate(-34.63 8.85) rotate(-9.44)"/><rect class="cls-5" x="33.6" y="217.8" width="6.06" height="1.09" rx="0.37" transform="translate(-35.33 8.97) rotate(-9.44)"/><rect class="cls-5" x="34.65" y="222.01" width="5.89" height="1.09" rx="0.37" transform="translate(-36.01 9.19) rotate(-9.44)"/><rect class="cls-5" x="36.4" y="226.09" width="5.82" height="1.09" rx="0.37" transform="translate(-36.65 9.52) rotate(-9.44)"/><rect class="cls-5" x="38.97" y="230.01" width="6.01" height="1.09" rx="0.37" transform="translate(-37.26 10.01) rotate(-9.44)"/><ellipse class="cls-2" cx="42.47" cy="318.53" rx="28.5" ry="8.74" transform="translate(-102.83 31.91) rotate(-19.29)"/><polygon class="cls-5" points="31.75 292.53 31.94 287.84 33.03 285.1 33.72 287.37 31.75 292.53"/><path class="cls-3" d="M81,293.42l.18-4.6s-3.89,3.89-3.89,4S81,293.42,81,293.42Z"/><path class="cls-3" d="M56,307.07c-13.59-.33-24.37-7.24-24.08-19.23s11.53-21.45,25.12-21.12S81.42,277,81.13,289,69.6,307.39,56,307.07Z"/><ellipse class="cls-3" cx="56.35" cy="293.12" rx="21.72" ry="24.6" transform="translate(-238.03 342.44) rotate(-88.63)"/><path class="cls-5" d="M39.18,277.47a20.49,20.49,0,0,0-7.43,15.06c-.28,12,10.5,22,24.08,22.3A26.28,26.28,0,0,0,73.23,309Z"/><ellipse class="cls-6" cx="56.35" cy="293.12" rx="20.75" ry="23.51" transform="translate(-238.03 342.44) rotate(-88.63)"/><path class="cls-4" d="M56,309.77c-10.42-.25-18.69-7.91-18.46-17.1s8.84-16.46,19.26-16.21,18.69,7.91,18.47,17.11S66.37,310,56,309.77Z"/><path class="cls-3" d="M75.22,293.57c0-.38,0-.76,0-1.13C74.33,301.09,66,307.75,56,307.51s-18-7.29-18.45-16a10.9,10.9,0,0,0-.07,1.14c-.23,9.19,8,16.85,18.46,17.1S75,302.77,75.22,293.57Z"/><path class="cls-3" d="M60,294.52l-3.87-3.58c-3.73.84-10.67,2.43-16.22,3.73A15.81,15.81,0,0,0,49,304.06Z"/><path class="cls-3" d="M53.88,305.33c.62.07,1.24.12,1.88.14a18.08,18.08,0,0,0,11.82-3.9l-6.32-5.85Z"/><path class="cls-3" d="M52,287.09l-7.29-6.75c-2.45,2.14-4.64,4.5-5.23,7.66Z"/><path class="cls-5" d="M55.76,278.45c10.42.25,18.69,7.91,18.47,17.11a15,15,0,0,1-1.12,5.31,15.08,15.08,0,0,0,2.11-7.3c.22-9.2-8-16.86-18.47-17.11-8.31-.2-15.47,4.38-18.15,10.9C41.81,281.92,48.33,278.28,55.76,278.45Z"/><path class="cls-5" d="M31.94,287.84a16.29,16.29,0,0,0,.21,4.75c.54-1.76,1.72-7,1.72-7l1.87-4.19,1.56-1.28,2.64-1.93.22-6A20.58,20.58,0,0,0,31.94,287.84Z"/><path class="cls-5" d="M79.55,287.23l.1-1.24a.3.3,0,0,1,.31-.31h.09a.3.3,0,0,1,.29.33l-.1,1.23a.31.31,0,0,1-.31.32h-.09A.3.3,0,0,1,79.55,287.23Z"/><path class="cls-5" d="M77.38,282.49l.13-2.22a.36.36,0,0,1,.35-.36h.22a.34.34,0,0,1,.33.37l-.12,2.22a.37.37,0,0,1-.36.36h-.21A.36.36,0,0,1,77.38,282.49Z"/><path class="cls-5" d="M74.39,278.36l.12-2.15a.42.42,0,0,1,.4-.41h.38a.42.42,0,0,1,.38.42l-.13,2.16a.39.39,0,0,1-.4.4h-.37A.39.39,0,0,1,74.39,278.36Z"/><path class="cls-5" d="M69.9,275l.14-2.61a.4.4,0,0,1,.4-.4h.37a.39.39,0,0,1,.38.42l-.14,2.61a.4.4,0,0,1-.39.41h-.38A.42.42,0,0,1,69.9,275Z"/><path class="cls-5" d="M65.39,272.83l.15-3a.4.4,0,0,1,.39-.41h.38a.42.42,0,0,1,.38.42l-.15,3a.4.4,0,0,1-.4.41h-.37A.4.4,0,0,1,65.39,272.83Z"/><path class="cls-5" d="M60.86,271.5l.14-2.89a.41.41,0,0,1,.4-.41h.37a.4.4,0,0,1,.38.43L62,271.53a.41.41,0,0,1-.4.4h-.38A.39.39,0,0,1,60.86,271.5Z"/><path class="cls-5" d="M56.3,271l.15-2.93a.4.4,0,0,1,.39-.41h.38a.41.41,0,0,1,.38.43l-.15,2.93a.39.39,0,0,1-.39.4h-.38A.4.4,0,0,1,56.3,271Z"/><path class="cls-5" d="M51.74,271.14l.14-2.75a.39.39,0,0,1,.39-.4h.38a.42.42,0,0,1,.38.43l-.14,2.75a.4.4,0,0,1-.4.4h-.38A.39.39,0,0,1,51.74,271.14Z"/><path class="cls-5" d="M47.15,272.14l.13-2.66a.42.42,0,0,1,.4-.41h.38a.42.42,0,0,1,.38.42l-.14,2.67a.41.41,0,0,1-.4.4h-.38A.39.39,0,0,1,47.15,272.14Z"/><path class="cls-5" d="M42.53,274.38l.14-2.88a.41.41,0,0,1,.4-.41h.37a.4.4,0,0,1,.38.43l-.14,2.88a.39.39,0,0,1-.4.4h-.37A.39.39,0,0,1,42.53,274.38Z"/></g></g></svg>