<svg xmlns="http://www.w3.org/2000/svg" viewBox="0 0 65 65"><defs><style>.cls-1{fill:#f0f5f7;}.cls-2{fill:#2c3e50;}.cls-3{fill:#343537;}.cls-4{fill:#f8f5ec;}</style></defs><title>money-manager</title><g id="Layer_2" data-name="Layer 2"><g id="icons"><circle class="cls-1" cx="32.5" cy="32.5" r="32.5"/><g id="_14" data-name="14"><path class="cls-2" d="M46.94,32.79c-5.31,8.07-6.46,9.1-6.46,9.1-.86,1.47-2.78,2.18-4.3,2.79-4.38,1.76-8.41,4.4-10,7.14H16.77C15.07,40.57,22,40.57,22,40.57a38.89,38.89,0,0,1,4.69-.3c8.81-.09,10.82-2.49,10.82-2.49,2.1-2.5,2.58-3.38,6.32-8.37,2.3-3.08,3-2,3.83-1.51C49.94,29.08,46.94,32.79,46.94,32.79Z"/><path class="cls-2" d="M28.35,24a7,7,0,1,0,7,7A7,7,0,0,0,28.35,24Z"/><path class="cls-2" d="M38.65,13.86a5.94,5.94,0,1,0,5.94,5.94A5.94,5.94,0,0,0,38.65,13.86Z"/><path class="cls-3" d="M40,18.46a.93.93,0,0,0-.79-1,3.49,3.49,0,0,0-.93-.08h-.46V19.3H39A1,1,0,0,0,40,18.46Z"/><path class="cls-3" d="M39.86,20.38a1.91,1.91,0,0,0-1.13-.3h-.88v2.13h.91a3,3,0,0,0,.72-.08,1,1,0,0,0,.81-1.08A1,1,0,0,0,39.86,20.38Z"/><path class="cls-2" d="M26.56,13.18a4.19,4.19,0,1,0,4.19,4.19A4.19,4.19,0,0,0,26.56,13.18Z"/><path class="cls-4" d="M39.05,22.38v.93h-.9v-.86a3.79,3.79,0,0,1-1.53-.39L36.89,21a3.16,3.16,0,0,0,1.5.4c.52,0,.88-.2.88-.56s-.3-.56-1-.78c-1-.33-1.63-.78-1.63-1.65A1.65,1.65,0,0,1,38.2,16.8v-.86h.89v.8a3.16,3.16,0,0,1,1.31.3l-.27,1a2.79,2.79,0,0,0-1.3-.32c-.58,0-.78.26-.78.51s.32.49,1.1.77c1.07.38,1.49.88,1.49,1.7A1.7,1.7,0,0,1,39.05,22.38Z"/><path class="cls-4" d="M29,34.91v1.28H27.78V35a5.23,5.23,0,0,1-2.11-.54L26,33a4.35,4.35,0,0,0,2.06.55c.72,0,1.21-.28,1.21-.77S28.91,32,28,31.72c-1.33-.44-2.24-1.07-2.24-2.27a2.28,2.28,0,0,1,2.1-2.21V26.07h1.22v1.09a4.58,4.58,0,0,1,1.81.4L30.5,29a3.9,3.9,0,0,0-1.79-.44c-.81,0-1.07.36-1.07.71s.44.67,1.5,1.05c1.48.53,2.06,1.21,2.06,2.34A2.35,2.35,0,0,1,29,34.91Z"/><path class="cls-4" d="M26.83,19.46v.7h-.67v-.64A2.88,2.88,0,0,1,25,19.23l.2-.79a2.51,2.51,0,0,0,1.13.29c.39,0,.65-.15.65-.42s-.22-.42-.72-.58c-.73-.25-1.22-.59-1.22-1.24a1.25,1.25,0,0,1,1.14-1.21v-.64h.67v.6a2.33,2.33,0,0,1,1,.22l-.2.76a2.15,2.15,0,0,0-1-.23c-.44,0-.58.19-.58.38s.23.37.81.58c.81.28,1.13.65,1.13,1.27A1.27,1.27,0,0,1,26.83,19.46Z"/></g></g></g></svg>