<svg xmlns="http://www.w3.org/2000/svg" viewBox="0 0 65 65"><defs><style>.cls-1{fill:#f0f5f7;}.cls-2{fill:#2c3e50;}</style></defs><title>protect-balance</title><g id="Layer_2" data-name="Layer 2"><g id="icons"><circle class="cls-1" cx="32.5" cy="32.5" r="32.5"/><path id="_4" data-name="4" class="cls-2" d="M36.23,32s-.2,4.24,3,4.24h9.3c3.19,0,3-4.24,3-4.24H50.41L44,19.76h2.38a.84.84,0,0,0,.83-.84.83.83,0,0,0-.83-.83H33.5l0-.44a.91.91,0,0,0-1-.85h0a.91.91,0,0,0-1,.85l0,.44H18.67a.84.84,0,0,0-.84.83.85.85,0,0,0,.84.84h2.09L14.7,32H13.5s-.2,4.24,3,4.24h9.29c3.19,0,3-4.24,3-4.24h-1L21.31,19.76H31.39L29.8,43H20.62c-3.94,0-5.1,5.2-5.1,5.2h34S48.32,43,44.37,43H35.2L33.61,19.76h9.81L37.36,32Zm-9.61,0H15.76L21.1,21.13ZM43.76,21.13,49.28,32H38.42Z"/></g></g></svg>