<svg xmlns="http://www.w3.org/2000/svg" viewBox="0 0 65 65"><defs><style>.cls-1{fill:#f0f5f7;}.cls-2{fill:#2c3e50;}</style></defs><title>trading-psychology</title><g id="Layer_2" data-name="Layer 2"><g id="icons"><circle class="cls-1" cx="32.5" cy="32.5" r="32.5"/><g id="_3" data-name="3"><path class="cls-2" d="M51.7,41.47c-1.2-1.87-5.23-3-9.22-4.7a49.75,49.75,0,0,1-4.94-2.24L32.1,38.75l2.41,2.18L32,43.49l-2.41-2.57,2.56-2.17c-.22,0-4.64-4.22-4.64-4.22a49.75,49.75,0,0,1-4.94,2.24c-4,1.66-8,2.83-9.22,4.7-1.08,1.67-.75,9.73-.75,9.73H27.6L32,43.49l4.34,7.71H52.45S52.78,43.14,51.7,41.47Z"/><path class="cls-2" d="M32.5,33.31a9.76,9.76,0,1,0-9.76-9.76A9.76,9.76,0,0,0,32.5,33.31Zm0-17.93a8.18,8.18,0,1,1-8.17,8.17A8.17,8.17,0,0,1,32.5,15.38Z"/><path class="cls-2" d="M33.31,28.42v1.64H31.73V28.55A6.62,6.62,0,0,1,29,27.86L29.5,26a5.59,5.59,0,0,0,2.64.7c.93,0,1.55-.36,1.55-1s-.51-1-1.71-1.39c-1.7-.57-2.86-1.37-2.86-2.92a2.93,2.93,0,0,1,2.69-2.84V17.06h1.56v1.4A6,6,0,0,1,35.7,19l-.48,1.8a5,5,0,0,0-2.29-.56c-1,0-1.38.46-1.38.91s.56.86,1.93,1.36c1.9.67,2.64,1.54,2.64,3A3,3,0,0,1,33.31,28.42Z"/></g></g></g></svg>